<svg width="395" height="330" viewBox="0 0 395 330" fill="none" xmlns="http://www.w3.org/2000/svg">
<g clip-path="url(#clip0)">
<path opacity="0.18" d="M158.06 325.53C159.47 317.59 153.39 315.39 148.39 309.09C143.39 302.79 137.39 296.95 134.51 289.39C132.86 285.02 132.18 279.94 128.68 276.84C126.32 274.75 123.03 273.94 120.73 271.78C115.9 267.24 117.5 259.38 119.18 252.97C120.86 246.56 121.6 238.31 116.05 234.69C112.37 232.3 107.44 233.15 103.39 231.47C98.04 229.23 95.39 222.98 95.22 217.19C95.05 211.4 96.78 205.73 97.6 199.99C101.85 170.49 82.22 141.48 86.25 111.99C83.71 111.84 80.44 111.59 77.91 111.45C78.18 132.45 78.44 153.62 74.44 174.24C70.44 194.86 61.81 215.14 46.66 229.69C40.85 235.26 33.51 241.5 34.66 249.47C35.34 254.37 39.29 259.07 37.66 263.73C36.9 265.88 35.08 267.45 33.41 269.01C28.2533 273.784 24.0519 279.496 21.03 285.84C15.31 298.02 11.33 317.84 0.0299988 325.17C50.78 328.09 107.28 322.59 158.06 325.53Z" fill="white"/>
<path d="M68.51 65.99C68.888 62.9523 70.0685 60.0701 71.93 57.64C72.2612 57.1874 72.7161 56.8401 73.24 56.64C74.55 56.25 75.74 57.49 76.49 58.64C80.83 65.33 82.67 73.28 84.37 81.07C86.39 90.39 88.39 99.79 88.39 109.32C88.4396 109.859 88.3537 110.402 88.14 110.9C87.6717 111.588 86.9549 112.069 86.14 112.24C83.01 113.24 76.9 114.48 74.45 111.49C72.28 108.84 72.34 102.64 71.66 99.49C69.32 88.5 66.54 77.22 68.51 65.99Z" fill="#4B39EF"/>
<path d="M178.85 39.79C180.06 39.99 240.5 65.55 240.5 65.55C240.5 65.55 241.91 90.01 241.71 89.4C241.51 88.79 79.01 104.56 79.22 103.15C79.43 101.74 76.99 72.39 76.99 72.39L129.84 45.71L178.85 39.79Z" fill="#4B39EF"/>
<path d="M175.22 45.66C176.43 45.87 237.93 72.24 237.93 72.24C237.93 72.24 241.93 90.01 241.71 89.4C241.49 88.79 79.01 104.56 79.22 103.15C79.43 101.74 77.39 79.06 77.39 79.06L130.39 51.78L175.22 45.66Z" fill="url(#paint0_linear)"/>
<path d="M122.28 101.71C124.13 103.15 125.81 105.2 128.16 105.34C129.283 105.321 130.39 105.069 131.41 104.6C132.693 104.275 133.817 103.501 134.58 102.42C134.826 101.883 134.979 101.308 135.03 100.72C135.695 95.5573 134.934 90.311 132.83 85.55C132.09 83.87 132.5 79.02 130.83 78.22C129.16 77.42 125.83 80.8 123.98 81.07C123.793 81.0905 123.611 81.1412 123.44 81.22C122.84 81.55 122.89 82.41 123.01 83.08C123.769 87.1958 124.13 91.375 124.09 95.56C123.98 94.18 122.39 93.38 121.01 93.39C118.85 93.39 115.48 95.49 116.38 98.11C116.69 98.99 117.63 99.22 118.38 99.55C119.767 100.1 121.078 100.826 122.28 101.71Z" fill="url(#paint1_linear)"/>
<path d="M127.65 92.45C128.016 92.5567 128.404 92.5567 128.77 92.45C129.54 92.18 129.77 91.22 129.83 90.45C129.825 89.3964 129.724 88.3455 129.53 87.31L128.59 81.39C128.585 81.2532 128.54 81.121 128.46 81.01C128.382 80.9401 128.29 80.8879 128.19 80.8568C128.09 80.8258 127.984 80.8166 127.88 80.83C126.166 80.8496 124.47 81.1887 122.88 81.83L123.42 86.16C123.434 86.3587 123.478 86.5542 123.55 86.74C123.644 86.9157 123.747 87.0859 123.86 87.25C124.56 88.35 123.86 89.66 124.48 90.69C125.1 91.72 126.66 92.21 127.65 92.45Z" fill="url(#paint2_linear)"/>
<path d="M143.84 0.849997C147.56 -0.376355 151.59 -0.270292 155.24 1.15C156.098 1.455 156.911 1.87194 157.66 2.39C160.53 4.32 163.17 6.89 164.14 10.2C164.55 11.59 164.64 13.07 165.09 14.45C165.267 15.1557 165.613 15.8081 166.097 16.3514C166.581 16.8947 167.189 17.3128 167.87 17.57C167.49 18.1014 166.979 18.5254 166.387 18.8005C165.795 19.0757 165.141 19.1926 164.49 19.14C165.452 20.6583 166.557 22.0814 167.79 23.39C166.3 23.6994 164.751 23.5602 163.34 22.99C163.771 24.0178 163.979 25.1257 163.95 26.24C162.726 26.1333 161.539 25.765 160.47 25.16C160.356 25.5371 160.113 25.8624 159.785 26.0797C159.456 26.297 159.062 26.3926 158.67 26.35C157.888 26.2428 157.142 25.9552 156.49 25.51L153.07 23.51C150.46 22.1563 148.067 20.4205 145.97 18.36C144.714 16.9291 143.643 15.3469 142.78 13.65C141.97 12.15 137.61 10.6 137.48 8.86C137.21 5.29 140.82 1.44 143.84 0.849997Z" fill="#3E3E54"/>
<path d="M130.54 79.91L131.99 85.76C132.281 87.018 132.648 88.257 133.09 89.47C134.52 93.12 137.37 96.21 138.09 100.06C138.22 100.71 138.36 101.48 138.97 101.74C139.347 101.86 139.753 101.86 140.13 101.74C143.73 100.94 147.48 101.38 151.13 101.04C153.873 100.694 156.589 100.163 159.26 99.45C167.543 97.5139 175.955 96.1771 184.43 95.45C185.29 95.37 186.32 95.19 186.64 94.39C186.746 94.068 186.777 93.7258 186.73 93.39C186.24 85.7 182.73 78.6 180.3 71.29C180.199 71.1047 180.142 70.8987 180.133 70.6879C180.124 70.477 180.164 70.2669 180.249 70.0738C180.334 69.8806 180.462 69.7095 180.623 69.5736C180.785 69.4378 180.975 69.3407 181.18 69.29C186.662 66.5399 191.86 63.2575 196.7 59.49L190.56 50.13C187.01 44.71 183.14 39.01 177.23 36.33C173.54 34.67 169.39 34.33 165.35 34.33C161 34.33 156.66 34.74 152.35 35.13C149.607 35.2415 146.88 35.5962 144.2 36.19C136.89 38.19 125.82 44.02 123.2 49.81C116.2 65.18 119.59 79.75 118.96 80.64C118.686 80.9283 118.472 81.2682 118.33 81.64C118.12 82.46 119 83.23 119.84 83.27C120.689 83.2208 121.512 82.9558 122.23 82.5C124.82 81.2258 127.639 80.4845 130.52 80.32C130.48 80.51 130.48 79.68 130.54 79.91Z" fill="white"/>
<path d="M161.13 67.39C161.157 69.3514 161.053 71.3124 160.82 73.26C160.813 73.6159 160.705 73.9625 160.51 74.26C160.067 74.6646 159.49 74.8923 158.89 74.9C152.07 75.77 145.15 75.55 138.26 75.34C137.962 75.3478 137.666 75.2933 137.39 75.18C137.089 74.9966 136.857 74.7188 136.73 74.39C136.1 73.05 135.31 70.39 136.87 69.3C138.43 68.21 142.09 68.68 143.87 68.56L161.13 67.39Z" fill="#4B39EF"/>
<path d="M161.13 67.39C161.157 69.3514 161.053 71.3124 160.82 73.26C160.813 73.6159 160.705 73.9625 160.51 74.26C160.067 74.6646 159.49 74.8923 158.89 74.9C152.07 75.77 145.15 75.55 138.26 75.34C137.962 75.3478 137.666 75.2933 137.39 75.18C137.089 74.9966 136.857 74.7188 136.73 74.39C136.1 73.05 135.31 70.39 136.87 69.3C138.43 68.21 142.09 68.68 143.87 68.56L161.13 67.39Z" fill="url(#paint3_linear)"/>
<path d="M141.39 99.73C141.39 99.26 140.66 99.35 140.27 99.6C128.27 107.24 116.79 115.6 105.27 123.86C102.576 125.672 100.073 127.752 97.8 130.07C95.6 132.48 93.8 135.5 93.8 138.76C93.8403 140.55 94.2133 142.317 94.9 143.97C99.34 155.85 110.1 163.97 117.79 174.09C121.63 179.09 124.86 184.84 130.04 188.48C131.04 189.19 132.19 189.9 132.58 191.07C132.46 191.19 133.75 190.76 133.63 190.88C137.733 188.385 141.489 185.359 144.8 181.88C141.179 178.79 137.833 175.39 134.8 171.72C133.16 169.86 131.52 168 130.06 166C127.592 162.453 125.399 158.722 123.5 154.84C122.05 152.06 119.86 149.84 120.75 146.84C122.02 142.55 133.4 136.67 139.95 132.84C146.29 129.12 156.95 123.38 156.68 123.5C156.68 123.5 150.77 149.62 164.83 170.5C178.89 191.38 197.92 222.97 199 222.61C200.08 222.25 209.82 208.54 209.82 208.54L183.13 163.09C183.13 163.09 190.79 106.88 184.43 95.31L141.39 99.73Z" fill="#3E3E54"/>
<path d="M141.39 99.73C141.39 99.26 140.66 99.35 140.27 99.6C128.27 107.24 116.79 115.6 105.27 123.86C102.576 125.672 100.073 127.752 97.8 130.07C95.6 132.48 93.8 135.5 93.8 138.76C93.8403 140.55 94.2133 142.317 94.9 143.97C99.34 155.85 110.1 163.97 117.79 174.09C121.63 179.09 124.86 184.84 130.04 188.48C131.04 189.19 132.19 189.9 132.58 191.07C132.46 191.19 133.75 190.76 133.63 190.88C137.733 188.385 141.489 185.359 144.8 181.88C141.179 178.79 137.833 175.39 134.8 171.72C133.16 169.86 131.52 168 130.06 166C127.592 162.453 125.399 158.722 123.5 154.84C122.05 152.06 119.86 149.84 120.75 146.84C122.02 142.55 133.4 136.67 139.95 132.84C146.29 129.12 156.95 123.38 156.68 123.5C156.68 123.5 150.77 149.62 164.83 170.5C178.89 191.38 197.92 222.97 199 222.61C200.08 222.25 209.82 208.54 209.82 208.54L183.13 163.09C183.13 163.09 190.79 106.88 184.43 95.31L141.39 99.73Z" fill="url(#paint4_linear)"/>
<path d="M139.72 195.44C140.087 200.32 140.6 205.187 141.26 210.04C141.4 211.04 141.64 212.21 142.53 212.69C142.973 212.861 143.453 212.915 143.923 212.844C144.393 212.774 144.836 212.583 145.21 212.29C147.009 211.04 148.347 209.234 149.02 207.15C149.675 205.08 150.098 202.944 150.28 200.78L151.36 192.11C151.51 190.85 151.61 189.41 150.73 188.5C149.85 187.59 148.37 187.64 147.13 187.31C145.23 186.8 143.79 185.31 142.45 183.87C141.37 185.12 137.95 187.58 138.02 189.24C138.02 190.13 138.96 191.17 139.21 192.04C139.494 193.153 139.665 194.292 139.72 195.44Z" fill="#3E3E54"/>
<path d="M204.27 222.66C204.646 223.567 204.889 224.523 204.99 225.5C205.561 228.647 206.299 231.761 207.2 234.83C207.412 235.818 207.787 236.765 208.31 237.63C208.576 238.062 208.943 238.422 209.381 238.679C209.819 238.935 210.313 239.08 210.82 239.1C212.5 239.1 213.55 237.3 214.2 235.76C215.512 232.908 216.382 229.874 216.78 226.76C217.159 223.647 216.536 220.494 215 217.76C214.747 217.283 214.375 216.88 213.92 216.59C213.295 216.36 212.643 216.212 211.98 216.15C210.2 215.71 209.12 213.9 207.53 213C207.378 212.892 207.197 212.833 207.01 212.83C206.717 212.879 206.455 213.041 206.28 213.28C204.853 214.819 203.581 216.493 202.48 218.28C201.75 219.47 201.54 219.63 202.57 220.57C203.263 221.154 203.84 221.863 204.27 222.66V222.66Z" fill="#3E3E54"/>
<path d="M229.85 53.01C230.231 49.9747 231.407 47.094 233.26 44.66C233.595 44.2067 234.053 43.8595 234.58 43.66C235.89 43.26 237.08 44.51 237.83 45.66C242.17 52.34 244.01 60.3 245.71 68.09C247.71 77.4 249.71 86.81 249.77 96.34C249.815 96.8759 249.73 97.4148 249.52 97.91C249.055 98.6023 248.337 99.0837 247.52 99.25C244.39 100.25 238.27 101.49 235.83 98.51C233.66 95.85 233.72 89.66 233.03 86.51C230.65 75.52 227.87 64.24 229.85 53.01Z" fill="#4B39EF"/>
<path opacity="0.18" d="M394.08 329.77C375.9 326.41 363.71 309.56 354.56 293.5C352.27 289.5 349.91 285.29 346.1 282.68C342.29 280.07 336.55 279.62 333.39 282.99C330.995 274.028 327.241 265.486 322.26 257.66C317.8 250.66 311.9 243.97 303.93 241.66C295.96 239.35 285.83 243.17 283.82 251.21C277 251.61 271.82 244.76 270.34 238.1C268.86 231.44 269.65 224.39 267.83 217.81C266.62 213.4 264.25 209.24 264.04 204.68C263.61 194.96 273.04 185.85 269.9 176.68C268.03 171.18 262.28 167.99 259.25 163.04C257.25 159.73 256.51 155.8 255.83 151.97L246.2 97.22C243.86 97.77 240.68 100.28 238.34 100.83C242.48 145.7 246.25 192.96 227.56 233.96C223.7 242.42 218.68 250.75 210.95 255.96C206.14 259.18 200.55 260.96 195.17 263.14C186.51 266.57 177.95 271.14 172.22 278.48C166.49 285.82 164.22 296.48 168.77 304.61C172.06 310.5 168.08 319.21 168.47 325.94C240.1 324.73 322.45 330.89 394.08 329.77Z" fill="white"/>
<path d="M157.39 35.73C156.687 39.9596 154.478 43.7921 151.17 46.52C149.992 47.5547 148.588 48.298 147.07 48.69C146.314 48.8798 145.527 48.9049 144.761 48.7634C143.995 48.6219 143.268 48.3172 142.63 47.87C141.568 46.9459 140.792 45.739 140.39 44.39C140.3 44.14 140.21 43.88 140.13 43.63C139.872 42.7389 139.878 41.792 140.148 40.9045C140.418 40.0169 140.94 39.2267 141.65 38.63C141.846 38.4533 142.017 38.2515 142.16 38.03C142.247 37.8758 142.314 37.7111 142.36 37.54C142.98 35.34 141.91 33.65 141.7 31.74C141.701 31.2293 141.81 30.7245 142.02 30.2591C142.231 29.7936 142.537 29.3781 142.92 29.04C144.695 26.9225 147.075 25.3978 149.74 24.67C150.088 24.5754 150.449 24.5349 150.81 24.55C152.99 24.65 153.39 26.55 153.63 28.13C153.81 29.31 153.99 30.48 154.16 31.66C154.245 32.6295 154.517 33.5735 154.96 34.44C155.196 34.8674 155.552 35.2168 155.983 35.4459C156.415 35.6749 156.904 35.7736 157.39 35.73V35.73Z" fill="url(#paint5_linear)"/>
<path d="M151.9 25.13C151.723 27.5077 151.162 29.8412 150.24 32.04C147.51 37.96 142.18 38.04 142.18 38.04C142.267 37.8858 142.334 37.7211 142.38 37.55C143 35.35 141.93 33.66 141.72 31.75L151.9 25.13Z" fill="url(#paint6_linear)"/>
<path d="M133.49 21.25C132.861 22.5114 132.422 23.8595 132.19 25.25C132.095 26.2267 132.201 27.2125 132.502 28.1465C132.803 29.0806 133.292 29.9428 133.94 30.68C134.596 31.4115 135.397 31.9983 136.292 32.4029C137.188 32.8076 138.158 33.0211 139.14 33.03C140.438 33.0022 141.72 32.7343 142.92 32.24C146.287 30.9663 149.276 28.8609 151.61 26.12C151.918 26.5342 152.337 26.8533 152.818 27.0407C153.299 27.2282 153.823 27.2764 154.33 27.18C155.341 26.9607 156.266 26.4496 156.99 25.71C157.337 25.4471 157.62 25.1089 157.817 24.7209C158.015 24.3329 158.122 23.9053 158.13 23.47C158 22.14 156.45 21.52 155.13 21.18C156.236 20.2815 157.153 19.1737 157.83 17.92C158.366 16.6305 158.517 15.2134 158.265 13.8399C158.013 12.4664 157.369 11.1952 156.41 10.18C155.427 9.18774 154.252 8.40501 152.958 7.87909C151.664 7.35316 150.277 7.09494 148.88 7.12C147.35 7.12 145.83 7.37 144.3 7.5C142.947 7.53106 141.603 7.73264 140.3 8.1C138.61 8.7 138.38 9.95 137.71 11.5L133.49 21.25Z" fill="url(#paint7_linear)"/>
<path d="M168.93 96.77H164.32C163.831 96.3457 163.421 95.8378 163.11 95.27C156.98 84.67 157.88 36.41 159.72 34.27C161.35 32.33 167.13 32.52 168.92 32.63H169.46L172.21 34.32C166.01 47.44 168.93 96.77 168.93 96.77Z" fill="#4B39EF"/>
<path d="M166.01 95.27H163.11C156.98 84.67 157.88 36.41 159.72 34.27C161.35 32.33 167.13 32.52 168.92 32.63L169.28 32.85C163.08 45.93 166.01 95.27 166.01 95.27Z" fill="url(#paint8_linear)"/>
<path d="M174.39 105.25C172.907 105.247 171.45 104.86 170.162 104.125C168.874 103.391 167.798 102.335 167.04 101.06L149.58 71.75C149.38 71.376 149.332 70.9396 149.446 70.5311C149.559 70.1227 149.826 69.7736 150.19 69.5562C150.554 69.3389 150.987 69.27 151.401 69.3638C151.814 69.4576 152.175 69.7069 152.41 70.06L169.92 99.39C170.445 100.28 171.222 100.994 172.153 101.442C173.084 101.891 174.127 102.054 175.15 101.91C187.08 100.3 193.03 99.14 194.87 98.54C194.87 97.18 194.87 95.08 194.87 94.24C194.862 94.0233 194.897 93.8072 194.973 93.604C195.048 93.4008 195.163 93.2145 195.311 93.0557C195.458 92.8969 195.636 92.7688 195.833 92.6786C196.03 92.5884 196.243 92.5379 196.46 92.53C196.677 92.5221 196.893 92.557 197.096 92.6326C197.299 92.7083 197.486 92.8232 197.644 92.9708C197.803 93.1185 197.931 93.296 198.021 93.4931C198.112 93.6903 198.162 93.9033 198.17 94.12C198.17 94.53 198.3 98.12 198.17 99.64C198.04 101.16 197.25 101.74 188.97 103.18C184.59 103.94 179.3 104.69 175.64 105.18C175.225 105.232 174.808 105.256 174.39 105.25Z" fill="#4B39EF"/>
<path d="M124.78 110.61C124.219 110.607 123.667 110.459 123.18 110.18C122.473 109.701 121.868 109.086 121.4 108.372C120.931 107.659 120.608 106.859 120.45 106.02L112.35 76.72C112.233 76.297 112.289 75.8449 112.506 75.4633C112.723 75.0817 113.082 74.8017 113.505 74.685C113.928 74.5683 114.38 74.6244 114.762 74.841C115.143 75.0576 115.423 75.417 115.54 75.84L123.63 105.14C124.05 106.66 124.63 107.21 124.8 107.3C130.14 105.74 132.58 104.69 133.38 104.21C133.55 101.79 134.21 94.57 134.24 94.21C134.26 93.994 134.322 93.7839 134.423 93.5919C134.523 93.3999 134.661 93.2296 134.828 93.0907C134.995 92.9519 135.187 92.8473 135.394 92.7828C135.601 92.7184 135.819 92.6953 136.035 92.715C136.251 92.7347 136.461 92.7967 136.653 92.8976C136.845 92.9985 137.015 93.1362 137.154 93.3029C137.293 93.4696 137.398 93.6619 137.462 93.8691C137.527 94.0762 137.55 94.294 137.53 94.51C137.25 97.61 136.7 103.77 136.65 104.89C136.59 106.25 135.45 107.11 131.95 108.43C129.88 109.2 127.4 109.96 125.68 110.43C125.391 110.534 125.087 110.595 124.78 110.61V110.61Z" fill="#4B39EF"/>
<path d="M174.39 105.39C172.907 105.391 171.45 105.006 170.161 104.273C168.873 103.541 167.797 102.485 167.04 101.21L149.57 71.9C149.361 71.5268 149.306 71.0872 149.415 70.6738C149.524 70.2604 149.789 69.9055 150.155 69.6838C150.52 69.4621 150.958 69.391 151.375 69.4854C151.792 69.5798 152.156 69.8324 152.39 70.19L169.86 99.5C170.388 100.385 171.164 101.096 172.092 101.544C173.02 101.992 174.059 102.157 175.08 102.02C187.02 100.41 192.97 99.25 194.81 98.65C194.81 97.29 194.81 95.19 194.81 94.34C194.795 93.9024 194.955 93.4769 195.254 93.1572C195.553 92.8374 195.967 92.6496 196.405 92.635C196.843 92.6204 197.268 92.7803 197.588 93.0794C197.908 93.3785 198.095 93.7924 198.11 94.23C198.11 94.64 198.25 98.23 198.11 99.75C197.97 101.27 197.19 101.85 188.91 103.29C184.52 104.05 179.24 104.8 175.58 105.29C175.187 105.354 174.789 105.388 174.39 105.39V105.39Z" fill="url(#paint9_linear)"/>
<path d="M174.39 105.12C172.908 105.119 171.451 104.734 170.163 104.001C168.874 103.268 167.798 102.213 167.04 100.94L149.58 71.63C149.456 71.444 149.372 71.2348 149.332 71.0151C149.291 70.7954 149.296 70.5699 149.345 70.3521C149.395 70.1343 149.488 69.9288 149.619 69.748C149.75 69.5672 149.917 69.415 150.108 69.3005C150.3 69.186 150.513 69.1116 150.735 69.0818C150.956 69.0521 151.181 69.0676 151.396 69.1274C151.611 69.1871 151.812 69.29 151.986 69.4297C152.161 69.5694 152.305 69.743 152.41 69.94L169.88 99.24C170.407 100.129 171.184 100.843 172.114 101.293C173.044 101.743 174.086 101.909 175.11 101.77C187.04 100.15 192.99 98.99 194.83 98.39C194.83 97.03 194.83 94.94 194.83 94.09C194.816 93.659 194.972 93.2397 195.263 92.922C195.555 92.6043 195.959 92.4133 196.39 92.39C196.828 92.3791 197.253 92.5407 197.572 92.84C197.892 93.1393 198.082 93.5523 198.1 93.99C198.1 94.39 198.23 97.99 198.1 99.51C197.97 101.03 197.18 101.6 188.9 103.04C184.52 103.8 179.23 104.55 175.57 105.04C175.179 105.093 174.785 105.119 174.39 105.12V105.12Z" fill="url(#paint10_linear)"/>
<path d="M124.75 110.61C124.188 110.608 123.637 110.46 123.15 110.18C121.723 109.21 120.738 107.714 120.41 106.02L112.32 76.72C112.258 76.5099 112.238 76.2896 112.262 76.0718C112.286 75.8541 112.354 75.6433 112.46 75.4518C112.566 75.2603 112.71 75.0918 112.882 74.9563C113.054 74.8208 113.251 74.7209 113.462 74.6625C113.674 74.6041 113.894 74.5883 114.111 74.616C114.329 74.6438 114.538 74.7145 114.728 74.8241C114.918 74.9337 115.084 75.08 115.216 75.2544C115.349 75.4288 115.445 75.6279 115.5 75.84L123.6 105.14C123.732 105.97 124.141 106.731 124.76 107.3C130.11 105.74 132.55 104.69 133.35 104.21C133.52 101.79 134.18 94.57 134.21 94.21C134.25 93.7737 134.461 93.3711 134.798 93.0907C135.134 92.8104 135.569 92.6752 136.005 92.715C136.441 92.7548 136.844 92.9662 137.124 93.3029C137.405 93.6395 137.54 94.0737 137.5 94.51C137.22 97.61 136.66 103.77 136.62 104.89C136.56 106.25 135.42 107.11 131.91 108.43C129.85 109.2 127.37 109.96 125.65 110.43C125.361 110.534 125.057 110.595 124.75 110.61V110.61Z" fill="url(#paint11_linear)"/>
<g opacity="0.69">
<path opacity="0.69" d="M124.94 110.55C124.379 110.547 123.827 110.399 123.34 110.12C121.915 109.148 120.931 107.653 120.6 105.96L112.51 76.65C112.402 76.2311 112.462 75.7863 112.679 75.4117C112.895 75.037 113.25 74.7624 113.667 74.647C114.085 74.5316 114.53 74.5847 114.909 74.7947C115.287 75.0048 115.567 75.355 115.69 75.77L123.79 105.08C123.926 105.909 124.334 106.669 124.95 107.24C130.3 105.67 132.74 104.63 133.54 104.14C133.71 101.72 134.37 94.5 134.4 94.14C134.42 93.924 134.482 93.7139 134.583 93.5219C134.684 93.3299 134.821 93.1596 134.988 93.0207C135.155 92.8819 135.347 92.7773 135.554 92.7128C135.761 92.6483 135.979 92.6253 136.195 92.645C136.411 92.6647 136.621 92.7268 136.813 92.8276C137.005 92.9285 137.175 93.0662 137.314 93.2329C137.453 93.3996 137.558 93.592 137.622 93.7991C137.687 94.0062 137.71 94.224 137.69 94.44C137.41 97.54 136.85 103.7 136.81 104.82C136.75 106.18 135.61 107.04 132.11 108.35C130.04 109.13 127.56 109.89 125.84 110.35C125.552 110.461 125.248 110.528 124.94 110.55V110.55Z" fill="url(#paint12_linear)"/>
</g>
<path d="M119.8 82.33C120.579 82.3357 121.35 82.4919 122.07 82.79C122.428 82.9422 122.745 83.1747 122.998 83.4695C123.252 83.7644 123.434 84.1135 123.53 84.49C123.67 85.2 123.41 85.96 123.66 86.64C123.91 87.32 124.38 87.64 124.56 88.18C124.9 89.18 124.02 90.34 124.31 91.39C124.44 91.86 124.79 92.25 124.91 92.73C125.002 93.1855 124.946 93.6586 124.75 94.08C123.75 96.68 120.61 97.88 117.81 97.8C116.17 97.8436 114.575 97.2607 113.35 96.17C112.445 95.1088 111.862 93.8112 111.67 92.43C111.297 90.691 111.103 88.9185 111.09 87.14C111.05 82.24 115.83 82.14 119.8 82.33Z" fill="url(#paint13_linear)"/>
<path d="M194.55 61.23C194.55 61.23 208.33 87.51 204.41 91.75C200.49 95.99 169.12 92.91 169.12 92.91C166.27 92.77 164.03 95.24 161.21 95.63C160.184 95.7605 159.142 95.6044 158.2 95.179C157.257 94.7536 156.451 94.0756 155.87 93.22C155.571 92.5987 155.129 92.0573 154.58 91.64C154.28 91.47 153.92 91.41 153.58 91.26C152.3 90.66 152.08 88.94 152.12 87.52C152.161 87.2484 152.112 86.9708 151.98 86.73C151.869 86.5961 151.738 86.4813 151.59 86.39C151.183 86.0004 150.915 85.4885 150.827 84.9324C150.738 84.3763 150.834 83.8065 151.1 83.31C151.673 82.324 152.576 81.5728 153.65 81.19C154.65 80.76 155.8 80.54 156.86 80.19C158.274 79.7045 159.591 78.9733 160.75 78.03C161.51 77.41 162.44 76.65 163.36 77.03C163.695 77.1875 163.992 77.4161 164.23 77.7L167.23 80.78C167.575 81.2405 168.031 81.6059 168.556 81.842C169.081 82.0781 169.657 82.1772 170.23 82.13L180.74 82.51C183.022 82.7329 185.326 82.5226 187.53 81.89L180.09 71.53C179.82 71.15 179.54 70.68 179.73 70.25C179.867 70.0201 180.069 69.8358 180.31 69.72C185.12 66.79 189.8 64.11 194.55 61.23Z" fill="url(#paint14_linear)"/>
<path d="M155.04 22.63C155.18 22.5913 155.327 22.5812 155.471 22.6C155.615 22.6189 155.754 22.6665 155.88 22.74C156.249 22.878 156.55 23.1541 156.72 23.51C156.77 23.7834 156.75 24.065 156.663 24.3288C156.575 24.5926 156.423 24.8303 156.22 25.02C155.997 25.3413 155.709 25.6122 155.375 25.8155C155.041 26.0187 154.668 26.1497 154.28 26.2C153.958 26.2062 153.641 26.1137 153.373 25.9349C153.105 25.7562 152.898 25.4997 152.78 25.2C152.677 24.8958 152.695 24.564 152.829 24.2722C152.962 23.9804 153.203 23.7507 153.5 23.63C153.79 23.55 154.04 23.63 154.31 23.41C154.58 23.19 154.7 22.77 155.04 22.63Z" fill="url(#paint15_linear)"/>
<path d="M141.39 99.73L139.16 100.14L137.78 100.39L131.89 80.69C121.08 62.31 125.42 42.69 127.13 40.69C127.83 39.86 129.77 39.22 131.79 38.76C133.707 38.3204 135.646 37.9866 137.6 37.76C132.19 49.68 141.39 99.73 141.39 99.73Z" fill="#4B39EF"/>
<path d="M139.18 100.14L137.8 100.39L131.91 80.69C121.1 62.31 125.44 42.69 127.15 40.69C127.85 39.86 129.79 39.22 131.81 38.76C133.83 38.3 135.4 38.24 135.4 38.24C130.05 49.95 138.92 98.73 139.18 100.14Z" fill="url(#paint16_linear)"/>
<path d="M184.39 67.01C184.39 67.01 193.78 79.41 192.19 81.01C190.6 82.61 186.52 82.42 186.52 82.42C186.699 82.0352 186.768 81.6087 186.721 81.1871C186.673 80.7655 186.51 80.3652 186.25 80.03C185.36 78.7 179.16 70.03 179.16 70.03L184.39 67.01Z" fill="url(#paint17_linear)"/>
</g>
<defs>
<linearGradient id="paint0_linear" x1="153.02" y1="25.81" x2="174.55" y2="229.5" gradientUnits="userSpaceOnUse">
<stop stop-opacity="0"/>
<stop offset="0.99"/>
</linearGradient>
<linearGradient id="paint1_linear" x1="116.24" y1="91.72" x2="135.26" y2="91.72" gradientUnits="userSpaceOnUse">
<stop stop-color="#E5C5D5"/>
<stop offset="0.42" stop-color="#EAD4D1"/>
<stop offset="1" stop-color="#F0E9CB"/>
</linearGradient>
<linearGradient id="paint2_linear" x1="988.434" y1="1550.39" x2="1455.47" y2="1762.79" gradientUnits="userSpaceOnUse">
<stop stop-color="#E5C5D5"/>
<stop offset="0.42" stop-color="#EAD4D1"/>
<stop offset="1" stop-color="#F0E9CB"/>
</linearGradient>
<linearGradient id="paint3_linear" x1="3977.54" y1="959.545" x2="3984.16" y2="1126.1" gradientUnits="userSpaceOnUse">
<stop stop-opacity="0"/>
<stop offset="0.99"/>
</linearGradient>
<linearGradient id="paint4_linear" x1="16468.9" y1="29007.1" x2="23412.5" y2="24925.5" gradientUnits="userSpaceOnUse">
<stop stop-opacity="0"/>
<stop offset="0.99"/>
</linearGradient>
<linearGradient id="paint5_linear" x1="2662.02" y1="2000.44" x2="2966.51" y2="2000.44" gradientUnits="userSpaceOnUse">
<stop stop-color="#E5C5D5"/>
<stop offset="0.42" stop-color="#EAD4D1"/>
<stop offset="1" stop-color="#F0E9CB"/>
</linearGradient>
<linearGradient id="paint6_linear" x1="1679.31" y1="1002.03" x2="1343.8" y2="1495.02" gradientUnits="userSpaceOnUse">
<stop stop-color="#E5C5D5"/>
<stop offset="0.42" stop-color="#EAD4D1"/>
<stop offset="1" stop-color="#F0E9CB"/>
</linearGradient>
<linearGradient id="paint7_linear" x1="3719.35" y1="1684.64" x2="4408.62" y2="1684.64" gradientUnits="userSpaceOnUse">
<stop stop-color="#E5C5D5"/>
<stop offset="0.42" stop-color="#EAD4D1"/>
<stop offset="1" stop-color="#F0E9CB"/>
</linearGradient>
<linearGradient id="paint8_linear" x1="2061.46" y1="5751.73" x2="332.827" y2="6572.21" gradientUnits="userSpaceOnUse">
<stop stop-opacity="0"/>
<stop offset="0.99"/>
</linearGradient>
<linearGradient id="paint9_linear" x1="8016.9" y1="5165.41" x2="9945.34" y2="3363.79" gradientUnits="userSpaceOnUse">
<stop stop-opacity="0"/>
<stop offset="0.99"/>
</linearGradient>
<linearGradient id="paint10_linear" x1="166.72" y1="88.89" x2="159.11" y2="92.97" gradientUnits="userSpaceOnUse">
<stop offset="0.02" stop-color="white" stop-opacity="0"/>
<stop offset="0.58" stop-color="white" stop-opacity="0.39"/>
<stop offset="0.68" stop-color="white" stop-opacity="0.68"/>
<stop offset="1" stop-color="white"/>
</linearGradient>
<linearGradient id="paint11_linear" x1="2965.74" y1="5209.24" x2="4358.8" y2="4772.29" gradientUnits="userSpaceOnUse">
<stop stop-opacity="0"/>
<stop offset="0.99"/>
</linearGradient>
<linearGradient id="paint12_linear" x1="3307.5" y1="4984.94" x2="3168.84" y2="5010.78" gradientUnits="userSpaceOnUse">
<stop offset="0.02" stop-color="white" stop-opacity="0"/>
<stop offset="0.58" stop-color="white" stop-opacity="0.39"/>
<stop offset="0.68" stop-color="white" stop-opacity="0.68"/>
<stop offset="1" stop-color="white"/>
</linearGradient>
<linearGradient id="paint13_linear" x1="1715.08" y1="2172.65" x2="1907.36" y2="2172.65" gradientUnits="userSpaceOnUse">
<stop stop-color="#E5C5D5"/>
<stop offset="0.42" stop-color="#EAD4D1"/>
<stop offset="1" stop-color="#F0E9CB"/>
</linearGradient>
<linearGradient id="paint14_linear" x1="8593.27" y1="4300.35" x2="11542.1" y2="4300.35" gradientUnits="userSpaceOnUse">
<stop stop-color="#E5C5D5"/>
<stop offset="0.42" stop-color="#EAD4D1"/>
<stop offset="1" stop-color="#F0E9CB"/>
</linearGradient>
<linearGradient id="paint15_linear" x1="802.642" y1="259.083" x2="782.862" y2="300.223" gradientUnits="userSpaceOnUse">
<stop stop-color="#E5C5D5"/>
<stop offset="0.42" stop-color="#EAD4D1"/>
<stop offset="1" stop-color="#F0E9CB"/>
</linearGradient>
<linearGradient id="paint16_linear" x1="2380.51" y1="6379.4" x2="1072.57" y2="6580.42" gradientUnits="userSpaceOnUse">
<stop stop-opacity="0"/>
<stop offset="0.99"/>
</linearGradient>
<linearGradient id="paint17_linear" x1="2635.28" y1="1915.82" x2="2917.29" y2="1885.69" gradientUnits="userSpaceOnUse">
<stop stop-color="#E5C5D5"/>
<stop offset="0.42" stop-color="#EAD4D1"/>
<stop offset="1" stop-color="#F0E9CB"/>
</linearGradient>
<clipPath id="clip0">
<rect width="394.08" height="329.91" fill="white"/>
</clipPath>
</defs>
</svg>
