<?xml version="1.0" standalone="no"?>
<!DOCTYPE svg PUBLIC "-//W3C//DTD SVG 20010904//EN"
 "http://www.w3.org/TR/2001/REC-SVG-20010904/DTD/svg10.dtd">
<svg version="1.0" xmlns="http://www.w3.org/2000/svg"
 width="547.000000pt" height="312.000000pt" viewBox="0 0 547.000000 312.000000"
 preserveAspectRatio="xMidYMid meet">
<metadata>
Created by potrace 1.16, written by Peter Selinger 2001-2019
</metadata>
<g transform="translate(0.000000,312.000000) scale(0.100000,-0.100000)"
fill="#000000" stroke="none">
<path d="M3080 3074 c-516 -44 -712 -74 -1104 -170 l-140 -34 -293 0 c-326 0
-377 -6 -537 -65 -248 -91 -357 -154 -482 -280 -193 -195 -354 -553 -354 -790
0 -46 5 -96 11 -111 5 -16 14 -76 18 -134 8 -105 32 -185 93 -303 56 -110 177
-233 305 -310 183 -110 270 -125 595 -108 247 12 406 16 413 9 8 -7 75 4 75
13 0 5 9 9 20 9 11 0 20 -4 20 -10 0 -5 18 -10 39 -10 22 0 42 -4 46 -9 3 -5
18 -10 33 -10 28 0 37 -2 157 -19 39 -6 156 -22 260 -36 258 -36 431 -70 615
-123 85 -25 162 -46 170 -47 8 -2 35 -12 60 -23 25 -11 63 -26 85 -33 22 -7
69 -25 105 -41 120 -52 497 -197 566 -217 38 -11 104 -28 148 -36 112 -23 356
-20 341 3 -2 4 35 15 83 24 48 10 96 20 107 22 93 21 115 28 126 41 6 8 17 14
23 14 6 0 64 27 128 59 207 104 341 235 461 446 116 203 164 465 123 662 -53
248 -157 448 -302 582 -128 117 -216 163 -515 266 -90 32 -185 68 -210 81
-116 58 -239 154 -403 312 -178 173 -256 237 -346 282 -67 33 -166 66 -241 79
-68 12 -236 20 -299 15z"/>
</g>
</svg>
