<?xml version="1.0" standalone="no"?>
<svg viewBox="0 0 200 200" xmlns="http://www.w3.org/2000/svg">
  <path fill="#2466E1" d="M17,-22.9C23.2,-22.4,30.2,-19.7,41.3,-13.5C52.4,-7.4,67.6,2.3,72.8,15C78.1,27.8,73.4,43.6,62.1,50.1C50.8,56.7,32.9,53.9,18.5,53.9C4.2,53.8,-6.6,56.6,-15,53.1C-23.4,49.7,-29.3,40.1,-42.6,32.6C-55.9,25,-76.6,19.5,-84,8.4C-91.4,-2.8,-85.5,-19.6,-70.8,-24.3C-56.2,-29,-32.7,-21.8,-19.5,-19C-6.2,-16.3,-3.1,-18.1,1.1,-19.9C5.4,-21.7,10.8,-23.4,17,-22.9Z" transform="translate(100 100)" />
</svg>
