<?xml version="1.0" standalone="no"?>
<svg viewBox="0 0 200 200" xmlns="http://www.w3.org/2000/svg">
  <path fill="#2466E1" d="M19.5,-31.9C25.7,-26.4,31.5,-21.7,35.5,-15.5C39.5,-9.3,41.7,-1.5,40.7,5.9C39.8,13.3,35.7,20.4,31.8,30.9C27.9,41.5,24.2,55.6,15,64.3C5.8,73.1,-8.9,76.6,-23.4,74.6C-37.9,72.6,-52.2,65.2,-58.3,53.3C-64.3,41.3,-62.1,25,-55.6,13.2C-49.2,1.5,-38.6,-5.7,-32.8,-13.6C-27,-21.4,-25.9,-30.1,-21.2,-36.3C-16.6,-42.5,-8.3,-46.3,-0.8,-45C6.6,-43.8,13.3,-37.4,19.5,-31.9Z" transform="translate(100 100)" />
</svg>
