<?xml version="1.0" standalone="no"?>
<!DOCTYPE svg PUBLIC "-//W3C//DTD SVG 20010904//EN"
 "http://www.w3.org/TR/2001/REC-SVG-20010904/DTD/svg10.dtd">
<svg version="1.0" xmlns="http://www.w3.org/2000/svg"
 width="343.000000pt" height="336.000000pt" viewBox="0 0 343.000000 336.000000"
 preserveAspectRatio="xMidYMid meet">
<metadata>
Created by potrace 1.16, written by Peter Selinger 2001-2019
</metadata>
<g transform="translate(0.000000,336.000000) scale(0.100000,-0.100000)"
fill="#000000" stroke="none">
<path d="M1829 3255 c-98 -20 -163 -49 -374 -169 -312 -179 -437 -260 -525
-343 -170 -160 -245 -306 -290 -568 -28 -160 -43 -190 -126 -258 -113 -91
-139 -118 -206 -207 -76 -102 -100 -154 -134 -297 -62 -254 -2 -498 183 -756
73 -100 130 -153 223 -206 41 -24 104 -62 140 -86 139 -92 226 -122 480 -169
74 -14 223 -34 330 -46 107 -12 237 -30 289 -41 67 -14 135 -19 240 -19 164 0
396 17 426 31 11 5 56 16 100 23 211 37 435 195 518 366 101 207 142 558 101
865 -24 176 -15 308 36 524 50 215 53 316 16 463 -25 100 -89 262 -131 334
-84 143 -240 288 -396 369 -92 48 -303 133 -393 159 -148 43 -376 57 -507 31z"/>
</g>
</svg>
