<?xml version="1.0" standalone="no"?>
<svg viewBox="0 0 200 200" xmlns="http://www.w3.org/2000/svg">
  <path fill="#2466E1" d="M39.8,-52.6C53.1,-53.4,66.4,-44.9,66.9,-33.6C67.4,-22.2,55,-8.1,51.9,6.8C48.7,21.7,54.8,37.2,50.8,46.8C46.8,56.3,32.7,59.9,20.8,57.1C8.9,54.4,-0.9,45.3,-7.7,37.9C-14.5,30.6,-18.4,25,-27.7,20.5C-36.9,16.1,-51.5,12.8,-55.7,5.9C-59.9,-0.9,-53.7,-11.3,-50.9,-25.7C-48.2,-40.1,-48.8,-58.5,-40.9,-60.2C-33,-61.9,-16.5,-46.8,-1.6,-44.3C13.2,-41.8,26.5,-51.8,39.8,-52.6Z" transform="translate(100 100)" />
</svg>
