<?xml version="1.0" standalone="no"?>
<!DOCTYPE svg PUBLIC "-//W3C//DTD SVG 20010904//EN"
 "http://www.w3.org/TR/2001/REC-SVG-20010904/DTD/svg10.dtd">
<svg version="1.0" xmlns="http://www.w3.org/2000/svg"
 width="492.000000pt" height="305.000000pt" viewBox="0 0 492.000000 305.000000"
 preserveAspectRatio="xMidYMid meet">
<metadata>
Created by potrace 1.16, written by Peter Selinger 2001-2019
</metadata>
<g transform="translate(0.000000,305.000000) scale(0.100000,-0.100000)"
fill="#000000" stroke="none">
<path d="M3961 2909 c-115 -22 -242 -81 -361 -164 -76 -54 -136 -112 -228
-221 -75 -89 -174 -129 -422 -174 -136 -25 -222 -87 -423 -309 -71 -77 -132
-141 -137 -141 -4 0 -27 -17 -51 -38 -53 -46 -276 -202 -290 -202 -5 0 -9 -4
-9 -9 0 -5 -11 -12 -25 -15 -15 -4 -27 -16 -31 -31 -4 -18 -10 -23 -21 -17 -9
5 -37 -2 -75 -21 -64 -30 -205 -70 -401 -112 -104 -22 -143 -25 -312 -25 -337
0 -507 -30 -700 -124 -172 -84 -272 -172 -322 -284 -90 -203 94 -432 489 -604
223 -98 416 -150 761 -203 128 -20 260 -43 295 -51 72 -16 300 -19 402 -5 36
5 200 17 365 26 356 20 436 31 615 90 74 24 182 58 240 75 58 18 150 51 205
75 55 23 110 46 122 49 20 6 219 144 235 163 4 4 36 41 72 81 40 45 105 140
169 250 108 183 200 324 367 567 124 180 223 379 250 505 24 115 26 270 4 378
-61 301 -323 505 -643 501 -53 -1 -116 -5 -140 -10z"/>
</g>
</svg>
