<?xml version="1.0" standalone="no"?>
<svg viewBox="0 0 200 200" xmlns="http://www.w3.org/2000/svg">
  <path fill="#2466E1" d="M30.1,-38.6C44.4,-37.7,65,-38.4,69,-31.1C72.9,-23.8,60.2,-8.5,52.4,3.6C44.6,15.8,41.7,24.7,36.3,32.1C30.9,39.6,23,45.5,13,51.8C3,58.1,-9,64.8,-21.2,64.6C-33.4,64.5,-45.8,57.5,-56.7,47.6C-67.7,37.8,-77.3,25.1,-81.3,10.5C-85.3,-4.2,-83.8,-20.9,-75.2,-32.2C-66.7,-43.4,-51,-49.2,-37.3,-50.4C-23.6,-51.6,-11.8,-48.1,-1.9,-45.1C7.9,-42.1,15.9,-39.6,30.1,-38.6Z" transform="translate(100 100)" />
</svg>
