<?xml version="1.0" standalone="no"?>
<!DOCTYPE svg PUBLIC "-//W3C//DTD SVG 20010904//EN"
 "http://www.w3.org/TR/2001/REC-SVG-20010904/DTD/svg10.dtd">
<svg version="1.0" xmlns="http://www.w3.org/2000/svg"
 width="386.000000pt" height="417.000000pt" viewBox="0 0 386.000000 417.000000"
 preserveAspectRatio="xMidYMid meet">
<metadata>
Created by potrace 1.16, written by Peter Selinger 2001-2019
</metadata>
<g transform="translate(0.000000,417.000000) scale(0.100000,-0.100000)"
fill="#000000" stroke="none">
<path d="M2190 4080 c-211 -39 -315 -81 -491 -200 -56 -39 -133 -112 -294
-279 -99 -103 -167 -152 -320 -232 -211 -109 -405 -234 -501 -321 -112 -103
-236 -307 -308 -506 -63 -176 -106 -389 -106 -525 0 -205 28 -387 80 -511 43
-103 259 -461 341 -566 169 -216 362 -412 488 -497 236 -157 465 -247 701
-274 101 -11 509 -7 605 6 243 34 483 137 702 302 106 80 255 225 321 312 86
114 282 515 282 576 0 9 7 40 15 68 24 86 45 283 45 423 0 207 -29 338 -110
497 -48 94 -94 157 -207 285 -47 54 -100 119 -119 147 -68 100 -110 282 -119
514 -11 274 -46 376 -182 539 -90 105 -211 181 -368 227 -118 35 -311 42 -455
15z"/>
</g>
</svg>
