<?xml version="1.0" standalone="no"?>
<!DOCTYPE svg PUBLIC "-//W3C//DTD SVG 20010904//EN"
 "http://www.w3.org/TR/2001/REC-SVG-20010904/DTD/svg10.dtd">
<svg version="1.0" xmlns="http://www.w3.org/2000/svg"
 width="304.000000pt" height="242.000000pt" viewBox="0 0 304.000000 242.000000"
 preserveAspectRatio="xMidYMid meet">
<metadata>
Created by potrace 1.16, written by Peter Selinger 2001-2019
</metadata>
<g transform="translate(0.000000,242.000000) scale(0.100000,-0.100000)"
fill="#000000" stroke="none">
<path d="M1660 2271 c-47 -10 -153 -33 -237 -50 -355 -73 -560 -177 -769 -388
-134 -134 -195 -214 -267 -348 -109 -200 -154 -379 -182 -720 -4 -40 16 -157
36 -225 23 -72 64 -145 116 -200 29 -32 53 -62 53 -66 1 -18 58 -70 106 -96
126 -68 319 -61 494 19 49 22 61 34 106 107 29 44 59 98 69 118 16 34 37 60
82 98 25 21 126 17 183 -6 25 -11 68 -32 95 -47 308 -170 317 -172 433 -112
172 89 205 117 249 208 45 92 55 148 52 298 -1 74 0 143 2 155 9 37 57 110 98
147 23 20 41 41 41 47 0 5 7 7 15 4 8 -4 15 -2 15 4 0 16 60 39 150 57 86 17
196 51 214 67 6 4 23 19 38 32 l27 24 -15 148 c-7 81 -20 171 -29 199 -50 175
-249 344 -540 459 -38 16 -79 32 -90 36 -93 38 -125 43 -290 46 -138 3 -186 0
-255 -15z"/>
</g>
</svg>
