<?xml version="1.0" standalone="no"?>
<!DOCTYPE svg PUBLIC "-//W3C//DTD SVG 20010904//EN"
 "http://www.w3.org/TR/2001/REC-SVG-20010904/DTD/svg10.dtd">
<svg version="1.0" xmlns="http://www.w3.org/2000/svg"
 width="220.000000pt" height="177.000000pt" viewBox="0 0 220.000000 177.000000"
 preserveAspectRatio="xMidYMid meet">
<metadata>
Created by potrace 1.16, written by Peter Selinger 2001-2019
</metadata>
<g transform="translate(0.000000,177.000000) scale(0.100000,-0.100000)"
fill="#000000" stroke="none">
<path d="M903 1648 c-4 -7 -8 -43 -8 -79 -1 -98 -62 -206 -96 -172 -15 15 7
73 27 73 24 0 50 74 34 100 -24 40 -113 -62 -126 -145 -7 -51 2 -99 23 -120 8
-9 33 -15 58 -15 36 0 47 5 73 34 63 72 104 256 68 311 -18 27 -40 32 -53 13z"/>
<path d="M1820 1574 c-46 -53 -71 -119 -77 -204 -7 -96 9 -154 53 -198 42 -42
71 -38 126 15 54 52 91 142 96 233 4 70 2 78 -22 107 -14 17 -38 34 -53 38
-15 3 -33 15 -41 26 -20 29 -46 23 -82 -17z"/>
<path d="M305 1465 c-86 -30 -195 -199 -203 -314 -5 -76 22 -148 68 -179 19
-13 36 -19 38 -14 1 5 15 7 30 5 85 -12 192 198 196 384 2 114 -38 151 -129
118z m0 -135 c8 0 18 8 24 18 7 11 13 14 20 7 15 -15 -13 -126 -47 -188 -28
-51 -76 -85 -106 -74 -23 9 -20 72 5 127 33 74 83 147 87 127 2 -9 10 -17 17
-17z"/>
<path d="M1333 1420 c-10 -11 -23 -20 -31 -20 -37 0 -116 -136 -128 -221 -8
-55 16 -144 46 -177 31 -33 81 -29 123 8 61 53 126 217 129 324 1 46 -3 60
-22 81 -30 32 -92 35 -117 5z m45 -109 c20 -12 -21 -110 -67 -162 -34 -39 -40
-42 -56 -29 -21 17 -16 62 16 138 19 46 23 50 41 39 17 -10 22 -9 32 6 12 19
16 20 34 8z"/>
<path d="M658 1159 c-44 -24 -130 -215 -144 -317 -5 -38 -2 -60 14 -96 19 -42
24 -46 55 -46 19 0 45 9 59 19 52 41 118 206 118 294 0 50 -16 86 -53 124 -25
24 -36 29 -49 22z"/>
<path d="M1740 1000 c-11 -11 -20 -27 -20 -37 0 -9 -22 -39 -49 -68 -67 -70
-93 -125 -99 -207 -2 -37 -1 -75 3 -85 5 -10 7 -22 6 -27 -1 -4 10 -19 24 -32
36 -33 93 -33 133 0 67 57 137 245 130 348 -4 55 -8 64 -41 94 -42 39 -59 42
-87 14z m35 -221 c-26 -86 -68 -141 -103 -137 -24 3 -27 8 -30 45 -5 63 69
190 102 177 8 -3 17 0 22 7 5 9 10 7 17 -9 7 -16 5 -39 -8 -83z"/>
<path d="M947 748 c-41 -57 -64 -101 -91 -178 -31 -86 -28 -139 8 -168 13 -9
21 -23 18 -30 -3 -10 4 -13 24 -10 51 6 116 134 130 256 5 52 3 66 -15 97 -11
20 -21 43 -21 51 0 25 -28 15 -53 -18z"/>
<path d="M1290 480 c-11 -11 -22 -32 -26 -47 -3 -16 -21 -57 -39 -93 -44 -86
-58 -141 -49 -196 6 -40 9 -44 34 -44 39 0 62 36 105 163 36 109 46 202 23
225 -17 17 -25 15 -48 -8z"/>
</g>
</svg>
