<?xml version="1.0" standalone="no"?>
<!DOCTYPE svg PUBLIC "-//W3C//DTD SVG 20010904//EN"
 "http://www.w3.org/TR/2001/REC-SVG-20010904/DTD/svg10.dtd">
<svg version="1.0" xmlns="http://www.w3.org/2000/svg"
 width="193.000000pt" height="184.000000pt" viewBox="0 0 193.000000 184.000000"
 preserveAspectRatio="xMidYMid meet">
<metadata>
Created by potrace 1.16, written by Peter Selinger 2001-2019
</metadata>
<g transform="translate(0.000000,184.000000) scale(0.100000,-0.100000)"
fill="#000000" stroke="none">
<path d="M633 1723 c-3 -10 -19 -51 -35 -91 -33 -84 -34 -103 -10 -124 28 -24
53 -29 88 -18 35 12 55 48 48 91 -2 13 -6 46 -9 72 -9 69 -65 117 -82 70z"/>
<path d="M1330 1613 c-27 -54 -49 -107 -48 -117 5 -37 47 -55 111 -47 80 10
84 16 69 103 -15 85 -45 158 -66 158 -9 0 -36 -40 -66 -97z"/>
<path d="M973 1513 c-3 -10 -21 -54 -39 -98 -40 -95 -41 -109 -12 -129 29 -20
143 -22 151 -3 6 16 1 48 -19 139 -20 86 -65 137 -81 91z"/>
<path d="M261 1328 c-5 -13 -21 -49 -35 -81 -32 -72 -33 -92 -2 -113 32 -20
134 -10 144 14 10 28 -27 145 -55 174 -32 34 -41 35 -52 6z"/>
<path d="M605 1306 c-8 -19 -20 -66 -26 -106 -15 -91 -6 -103 79 -103 32 0 64
3 71 8 19 11 9 72 -23 142 -46 100 -77 118 -101 59z"/>
<path d="M1319 1253 c-7 -15 -29 -66 -50 -111 -22 -46 -39 -89 -39 -96 0 -7
11 -23 25 -36 22 -20 27 -22 55 -10 16 7 39 10 49 7 11 -3 28 1 37 8 16 11 17
21 6 111 -16 129 -57 192 -83 127z"/>
<path d="M1680 1058 c-5 -13 -25 -63 -45 -113 -20 -49 -38 -95 -41 -102 -5
-10 9 -27 48 -59 22 -18 124 -27 148 -14 18 9 21 18 17 43 -12 70 -48 204 -63
235 -20 38 -50 42 -64 10z"/>
<path d="M903 901 c-27 -81 -28 -92 -16 -116 9 -17 20 -25 30 -21 8 3 29 6 47
6 18 0 41 6 51 14 17 12 18 17 6 57 -54 181 -74 191 -118 60z"/>
<path d="M141 913 c-15 -30 -41 -125 -41 -153 0 -50 74 -87 114 -57 19 14 19
20 8 102 -11 86 -29 125 -58 125 -7 0 -17 -8 -23 -17z"/>
<path d="M1324 813 c-4 -16 -17 -49 -30 -75 -28 -56 -29 -75 -6 -105 15 -20
23 -21 67 -15 47 7 50 9 53 38 3 35 -24 152 -40 172 -17 20 -37 14 -44 -15z"/>
<path d="M537 688 c-20 -46 -37 -90 -37 -99 0 -22 26 -43 45 -35 8 3 15 1 15
-4 0 -15 43 -12 84 5 43 18 45 34 15 123 -19 57 -47 92 -74 92 -6 0 -28 -37
-48 -82z"/>
<path d="M995 620 c-7 -11 -55 -186 -55 -199 0 -17 42 -51 63 -51 42 0 96 21
101 38 6 19 -29 135 -58 190 -16 32 -39 41 -51 22z"/>
<path d="M1379 330 c-25 -77 -31 -105 -23 -118 11 -18 56 -36 116 -47 32 -6
36 -4 42 18 7 30 -20 180 -40 219 -10 18 -22 28 -38 28 -20 0 -27 -12 -57
-100z"/>
<path d="M566 290 c-20 -51 -30 -113 -22 -144 7 -29 49 -46 112 -46 44 0 44 0
44 35 0 40 -41 149 -67 177 -26 29 -49 22 -67 -22z"/>
</g>
</svg>
