<?xml version="1.0" standalone="no"?>
<!DOCTYPE svg PUBLIC "-//W3C//DTD SVG 20010904//EN"
 "http://www.w3.org/TR/2001/REC-SVG-20010904/DTD/svg10.dtd">
<svg version="1.0" xmlns="http://www.w3.org/2000/svg"
 width="232.000000pt" height="210.000000pt" viewBox="0 0 232.000000 210.000000"
 preserveAspectRatio="xMidYMid meet">
<metadata>
Created by potrace 1.16, written by Peter Selinger 2001-2019
</metadata>
<g transform="translate(0.000000,210.000000) scale(0.100000,-0.100000)"
fill="#000000" stroke="none">
<path d="M1476 2040 c-14 -17 -26 -35 -26 -38 0 -4 -4 -13 -9 -21 -7 -10 -13
-11 -30 -1 -48 25 -78 -10 -65 -75 9 -48 75 -119 102 -111 11 4 24 0 31 -8 7
-8 26 -18 43 -21 27 -6 36 -1 79 41 73 72 76 148 9 208 -34 30 -48 32 -64 10
-10 -13 -12 -11 -11 12 0 40 -27 42 -59 4z"/>
<path d="M2127 1923 c-8 -10 -23 -49 -33 -88 -12 -47 -27 -79 -45 -97 -32 -32
-65 -38 -54 -10 8 19 9 27 7 60 -1 13 -9 22 -19 23 -11 0 -13 3 -5 6 33 13
-10 53 -58 53 -28 0 -66 -53 -80 -110 -19 -81 -10 -127 58 -269 37 -77 138
-112 212 -74 105 54 172 252 141 418 -16 89 -81 135 -124 88z"/>
<path d="M857 1809 c-15 -11 -32 -38 -38 -60 -8 -26 -18 -39 -28 -38 -48 4
-86 -22 -97 -67 -8 -32 13 -99 43 -134 29 -35 150 -100 186 -100 58 0 131 80
142 155 8 50 -16 146 -44 174 -9 9 -20 25 -24 34 -7 19 -20 21 -46 8 -15 -9
-17 -6 -13 20 4 27 2 29 -26 29 -16 0 -41 -9 -55 -21z"/>
<path d="M1217 1599 c-47 -27 -94 -188 -81 -277 9 -63 24 -95 78 -172 63 -87
93 -105 178 -104 141 3 200 93 199 309 -1 152 -41 245 -106 245 -47 0 -64 -30
-72 -120 -7 -80 -29 -117 -73 -122 -25 -3 -25 -2 -23 67 1 39 3 85 4 104 2 20
-2 36 -9 39 -7 2 -9 8 -6 14 15 24 -54 37 -89 17z"/>
<path d="M395 1286 c-67 -69 -103 -215 -75 -302 29 -91 111 -196 169 -216 57
-19 170 -16 215 6 110 55 170 294 113 450 -18 49 -29 63 -61 79 -52 27 -90 15
-94 -31 -2 -17 -7 -32 -12 -32 -5 0 -7 -19 -4 -42 6 -40 3 -47 -36 -90 -38
-43 -46 -48 -85 -48 l-43 0 13 44 c13 42 33 83 57 117 28 41 -21 109 -79 109
-30 0 -44 -8 -78 -44z"/>
<path d="M1872 1167 c-6 -7 -17 -46 -23 -87 -10 -56 -19 -81 -39 -102 -33 -34
-38 -35 -50 -3 -5 13 -15 23 -22 21 -7 -1 -10 -1 -5 1 16 10 6 34 -18 43 -60
23 -109 -35 -109 -129 0 -43 4 -57 22 -71 12 -10 22 -29 22 -44 0 -31 59 -93
96 -102 14 -4 42 -3 62 1 20 4 47 7 60 7 12 0 22 5 22 12 0 16 60 67 71 60 5
-3 12 3 15 13 3 10 10 27 16 38 19 35 23 207 5 246 -8 19 -18 47 -22 64 -4 16
-12 33 -18 37 -19 12 -74 9 -85 -5z"/>
<path d="M964 855 c-27 -18 -64 -103 -71 -163 -3 -29 1 -72 12 -111 43 -166
130 -251 255 -251 103 0 166 49 205 159 17 48 21 201 6 229 -6 9 -12 29 -15
44 -4 19 -15 30 -39 37 -49 16 -65 6 -96 -64 -33 -71 -60 -95 -112 -95 -49 0
-63 19 -56 78 6 49 -10 132 -28 144 -16 12 -39 9 -61 -7z"/>
<path d="M104 529 c-28 -31 -26 -164 4 -239 29 -72 91 -151 115 -146 15 4 16
2 6 -10 -18 -22 -3 -29 64 -29 83 0 149 27 189 77 28 35 31 48 35 126 4 73 2
96 -17 146 -12 32 -31 67 -42 78 -37 37 -78 10 -92 -62 -8 -37 -83 -112 -109
-108 -19 3 -22 10 -23 53 -1 30 -10 68 -23 93 -19 37 -26 42 -55 42 -21 0 -40
-8 -52 -21z"/>
</g>
</svg>
