<?xml version="1.0" standalone="no"?>
<!DOCTYPE svg PUBLIC "-//W3C//DTD SVG 20010904//EN"
 "http://www.w3.org/TR/2001/REC-SVG-20010904/DTD/svg10.dtd">
<svg version="1.0" xmlns="http://www.w3.org/2000/svg"
 width="228.000000pt" height="215.000000pt" viewBox="0 0 228.000000 215.000000"
 preserveAspectRatio="xMidYMid meet">
<metadata>
Created by potrace 1.16, written by Peter Selinger 2001-2019
</metadata>
<g transform="translate(0.000000,215.000000) scale(0.100000,-0.100000)"
fill="#000000" stroke="none">
<path d="M992 2000 c-35 -33 -30 -87 12 -131 25 -26 33 -43 29 -57 -6 -26 15
-94 28 -87 5 4 9 3 9 -2 1 -35 50 -38 50 -3 0 39 23 38 108 -1 46 -22 88 -37
93 -33 31 19 -13 78 -79 108 -23 11 -42 22 -42 25 1 3 21 28 45 55 50 55 53
65 28 107 -20 34 -43 37 -68 9 -10 -11 -42 -38 -71 -61 -44 -34 -57 -39 -68
-29 -11 8 -12 18 -6 36 8 20 5 31 -12 54 -26 36 -28 36 -56 10z"/>
<path d="M112 1848 c-23 -23 -14 -83 21 -135 l34 -50 -20 -24 c-27 -33 -67
-115 -67 -136 0 -18 50 -84 50 -67 0 5 4 3 9 -5 14 -22 51 -4 51 25 0 25 27
83 54 117 13 16 17 15 67 -18 65 -43 87 -51 102 -36 17 17 -10 59 -60 96 -23
16 -42 35 -42 40 -1 6 17 32 38 59 34 43 38 52 28 73 -5 12 -14 23 -19 23 -5
0 -6 5 -3 10 15 24 -18 6 -74 -41 -33 -28 -65 -48 -71 -44 -5 3 -10 21 -10 38
-1 36 -23 72 -39 62 -7 -3 -8 0 -5 9 7 19 -26 22 -44 4z"/>
<path d="M1697 1842 c-10 -10 -17 -30 -17 -45 0 -30 19 -77 32 -77 19 0 6 -28
-28 -61 -72 -69 -83 -128 -35 -181 25 -27 33 -31 48 -22 10 6 18 17 19 25 1
33 32 79 53 79 6 0 11 6 11 14 0 7 11 21 24 29 21 14 27 14 76 -9 45 -21 56
-23 67 -11 18 18 3 58 -31 88 l-25 22 29 36 c17 19 30 46 30 58 0 30 -20 73
-34 73 -7 0 -36 -22 -65 -50 -29 -27 -57 -50 -62 -50 -5 0 -9 11 -9 24 0 14
-7 32 -16 40 -8 9 -12 20 -9 26 11 18 -41 11 -58 -8z"/>
<path d="M840 1617 c0 -7 -12 -30 -27 -52 l-27 -40 -8 33 c-5 17 -13 32 -19
32 -6 0 -7 5 -4 10 4 6 -7 10 -24 10 -66 0 -91 -71 -51 -138 l21 -34 -31 -46
c-36 -54 -34 -91 9 -128 35 -31 46 -30 70 9 11 18 31 43 45 56 l25 23 30 -21
c42 -30 85 -33 89 -5 3 21 -29 63 -63 81 -18 10 -17 13 8 67 33 69 34 108 5
136 -25 23 -48 26 -48 7z"/>
<path d="M1310 1486 c-51 -44 -88 -69 -92 -63 -4 7 -12 6 -25 -4 -16 -12 -17
-12 -6 2 26 33 -21 40 -55 9 -30 -28 -29 -78 3 -121 13 -19 35 -49 47 -66 13
-18 29 -33 36 -33 6 0 12 -4 12 -9 0 -5 16 -19 35 -31 20 -12 42 -28 50 -36
18 -18 45 -7 45 18 0 23 -23 70 -43 87 -17 14 -11 51 8 51 8 0 16 8 19 18 4 9
27 40 52 67 69 76 77 94 57 144 -12 30 -22 41 -37 41 -12 -1 -59 -34 -106 -74z"/>
<path d="M1741 1444 c-27 -34 -27 -70 0 -113 15 -25 19 -43 14 -68 -5 -29 -3
-35 14 -40 12 -3 21 -14 21 -24 0 -11 5 -19 10 -19 6 0 10 4 10 8 0 5 11 14
24 20 18 8 28 7 43 -3 24 -19 59 -19 67 0 5 15 -10 71 -25 91 -6 7 -1 18 11
29 37 34 38 145 1 145 -9 0 -34 -22 -55 -50 -41 -54 -55 -61 -57 -30 -3 39 -5
45 -16 43 -6 -1 -9 6 -6 17 8 30 -31 26 -56 -6z"/>
<path d="M276 1171 c-8 -12 9 -57 24 -66 7 -5 3 -18 -14 -40 -22 -28 -24 -37
-16 -66 7 -24 19 -38 40 -48 17 -7 32 -12 33 -10 63 99 76 107 131 84 20 -9
41 -13 46 -10 18 11 10 42 -15 61 -15 11 -25 29 -25 44 0 14 -10 34 -21 44
-21 17 -23 17 -54 0 -31 -16 -35 -17 -59 -1 -28 19 -62 22 -70 8z"/>
<path d="M1892 1041 c-27 -48 -28 -107 -3 -145 l20 -29 -25 -33 c-14 -17 -27
-51 -30 -73 -4 -35 -1 -45 21 -65 14 -13 25 -28 25 -34 0 -6 10 -12 23 -14 16
-2 30 7 51 37 43 59 95 104 125 107 18 2 27 10 31 28 5 25 58 112 73 118 12 6
8 52 -9 88 -19 40 -56 46 -76 14 -19 -31 -126 -112 -138 -105 -7 4 -7 12 -2
18 12 17 14 69 2 62 -6 -3 -7 1 -4 9 4 10 1 16 -9 16 -10 0 -13 7 -10 20 4 16
0 20 -19 20 -18 0 -30 -10 -46 -39z"/>
<path d="M918 978 c-30 -35 -66 -76 -80 -92 l-24 -28 -40 20 c-21 11 -49 30
-62 42 -15 14 -29 19 -43 15 -34 -11 -18 -62 36 -110 42 -38 43 -41 28 -60 -8
-11 -26 -44 -40 -73 -31 -66 -26 -118 13 -132 14 -6 22 -14 19 -20 -11 -17 21
-11 37 8 9 9 21 34 28 55 6 20 15 37 20 37 4 0 13 13 20 30 7 16 16 27 21 24
5 -3 6 1 3 9 -3 8 2 20 11 27 13 11 23 11 51 1 18 -7 38 -9 44 -6 15 9 12 41
-5 55 -19 16 -14 43 13 77 12 15 22 32 22 39 0 6 9 19 20 29 21 19 28 75 9 75
-6 0 -8 7 -5 16 4 12 2 15 -9 10 -8 -3 -15 -1 -15 4 0 21 -19 7 -72 -52z"/>
<path d="M1447 935 c-30 -33 -54 -52 -63 -48 -8 3 -11 9 -8 15 3 5 -3 12 -14
15 -14 3 -18 11 -15 24 4 15 0 19 -22 19 -15 0 -34 -8 -41 -17 -16 -22 -18
-107 -3 -135 9 -16 7 -26 -9 -48 -12 -15 -20 -39 -19 -52 2 -27 31 -61 41 -50
4 3 4 -1 1 -9 -10 -26 29 -29 60 -5 l27 22 55 -28 c41 -21 60 -25 73 -18 32
17 14 71 -38 116 -10 9 -2 26 38 85 43 62 51 79 46 107 -5 35 -27 63 -48 61
-7 -1 -35 -25 -61 -54z"/>
<path d="M1243 451 c-17 -20 -59 -59 -92 -85 l-61 -47 -10 26 c-5 14 -17 28
-25 31 -8 4 -15 12 -15 20 0 16 -14 18 -39 4 -30 -16 -35 -73 -11 -126 11 -26
20 -56 20 -68 0 -24 60 -86 82 -86 8 0 19 5 25 11 8 8 23 5 54 -10 80 -39 127
-18 92 41 -10 18 -29 37 -41 43 -30 14 -28 21 20 69 23 22 47 48 53 57 5 8 20
31 32 50 27 41 27 43 7 63 -8 9 -13 16 -9 16 4 0 0 7 -9 15 -22 22 -38 17 -73
-24z"/>
</g>
</svg>
