<?xml version="1.0" standalone="no"?>
<!DOCTYPE svg PUBLIC "-//W3C//DTD SVG 20010904//EN"
 "http://www.w3.org/TR/2001/REC-SVG-20010904/DTD/svg10.dtd">
<svg version="1.0" xmlns="http://www.w3.org/2000/svg"
 width="273.000000pt" height="239.000000pt" viewBox="0 0 273.000000 239.000000"
 preserveAspectRatio="xMidYMid meet">
<metadata>
Created by potrace 1.16, written by Peter Selinger 2001-2019
</metadata>
<g transform="translate(0.000000,239.000000) scale(0.100000,-0.100000)"
fill="#000000" stroke="none">
<path d="M200 2200 c0 -5 -9 -10 -20 -10 -46 0 -32 -93 17 -115 12 -5 24 -17
26 -27 6 -22 29 -23 67 -3 28 14 30 20 30 71 0 80 -10 94 -70 94 -28 0 -50 -4
-50 -10z"/>
<path d="M908 2126 c-27 -20 -22 -44 16 -82 38 -38 61 -42 105 -16 38 21 40
53 6 87 -28 28 -97 34 -127 11z"/>
<path d="M1406 2119 c-17 -5 -34 -15 -39 -24 -4 -8 -12 -13 -18 -10 -5 4 -9
-7 -9 -24 0 -37 49 -97 86 -104 37 -7 93 31 94 62 0 30 -37 86 -65 99 -11 5
-33 5 -49 1z"/>
<path d="M620 1993 c-36 -14 -31 -41 15 -87 14 -14 25 -32 25 -41 0 -9 9 -34
20 -55 22 -44 41 -49 99 -29 23 8 31 17 31 35 0 35 -35 103 -74 147 -35 37
-72 46 -116 30z"/>
<path d="M1668 1809 c-23 -13 -23 -31 3 -82 33 -65 47 -77 92 -77 31 0 38 3
33 15 -3 9 0 15 9 15 22 0 18 29 -5 48 -11 10 -29 33 -39 52 -20 38 -59 50
-93 29z"/>
<path d="M190 1629 c-33 -14 -40 -26 -40 -81 0 -65 13 -94 46 -101 20 -3 33 1
49 19 12 13 27 24 32 24 10 0 -1 122 -12 140 -8 12 -42 12 -75 -1z"/>
<path d="M2328 1593 c-10 -2 -18 -9 -18 -14 0 -6 -5 -7 -11 -3 -11 7 -29 -12
-29 -32 0 -6 14 -25 30 -42 17 -18 30 -36 30 -41 0 -5 13 -12 29 -16 22 -5 35
-1 50 14 12 12 25 21 30 21 14 0 20 40 10 68 -17 45 -60 61 -121 45z"/>
<path d="M563 1582 c-19 -3 -23 -10 -23 -38 0 -61 55 -134 101 -134 29 0 79
34 79 53 0 47 -55 111 -92 105 -13 -2 -27 2 -33 7 -5 6 -20 9 -32 7z"/>
<path d="M1635 1406 l-37 -35 23 -42 c13 -24 36 -50 51 -58 26 -15 29 -14 58
14 35 33 37 54 10 113 -24 53 -53 56 -105 8z"/>
<path d="M983 1398 c-25 -12 -30 -37 -12 -55 7 -7 13 -26 14 -44 3 -34 27 -63
60 -73 14 -4 31 3 53 21 31 26 32 30 22 65 -6 20 -23 50 -39 67 -30 32 -59 38
-98 19z"/>
<path d="M1348 1362 c-22 -4 -23 -15 -1 -50 49 -79 93 -101 127 -63 22 25 14
70 -17 100 -22 19 -59 24 -109 13z"/>
<path d="M1992 1324 c-12 -8 -22 -22 -22 -31 0 -51 91 -173 128 -173 11 0 32
16 47 36 27 35 27 36 10 74 -16 36 -49 60 -80 60 -8 0 -17 11 -21 25 -7 29
-29 32 -62 9z"/>
<path d="M943 1048 c-28 -14 -29 -33 -3 -55 11 -10 20 -24 20 -31 0 -7 13 -27
30 -43 25 -25 33 -28 50 -19 23 12 35 49 25 79 -9 31 -61 81 -82 80 -10 0 -28
-5 -40 -11z"/>
<path d="M2394 953 c-7 -26 34 -121 65 -152 24 -24 46 -19 78 18 38 45 30 63
-68 145 -27 23 -68 17 -75 -11z"/>
<path d="M1438 827 c-12 -10 -14 -17 -6 -32 13 -25 130 -145 141 -145 14 0 57
52 57 70 0 22 -56 73 -110 100 -45 23 -59 24 -82 7z"/>
<path d="M2110 730 c-27 -27 -26 -37 16 -106 77 -128 115 -162 158 -143 14 7
26 20 26 30 0 10 5 21 10 24 6 3 10 18 10 32 0 32 -81 116 -107 111 -12 -2
-28 9 -46 34 -33 44 -40 45 -67 18z"/>
<path d="M887 616 l-27 -22 31 -47 c35 -53 88 -91 115 -80 9 3 26 15 37 26 16
16 17 23 7 48 -11 27 -71 88 -88 90 -4 0 -16 2 -27 4 -11 2 -32 -6 -48 -19z"/>
<path d="M1875 492 c-20 -14 -55 -65 -55 -80 0 -9 7 -13 20 -9 13 3 20 0 20
-10 0 -8 10 -37 21 -64 18 -42 25 -49 49 -49 24 0 31 7 45 44 16 41 16 46 0
76 -14 27 -78 100 -87 100 -2 0 -8 -4 -13 -8z"/>
</g>
</svg>
