<?xml version="1.0" standalone="no"?>
<!DOCTYPE svg PUBLIC "-//W3C//DTD SVG 20010904//EN"
 "http://www.w3.org/TR/2001/REC-SVG-20010904/DTD/svg10.dtd">
<svg version="1.0" xmlns="http://www.w3.org/2000/svg"
 width="253.000000pt" height="125.000000pt" viewBox="0 0 253.000000 125.000000"
 preserveAspectRatio="xMidYMid meet">
<metadata>
Created by potrace 1.16, written by Peter Selinger 2001-2019
</metadata>
<g transform="translate(0.000000,125.000000) scale(0.100000,-0.100000)"
fill="#000000" stroke="none">
<path d="M1719 1153 c-24 -21 -46 -41 -49 -44 -13 -18 -139 -79 -152 -74 -8 3
-21 18 -30 33 -27 45 -55 65 -80 58 -13 -3 -54 -33 -93 -66 -91 -79 -104 -81
-162 -36 -77 60 -131 46 -256 -62 -27 -23 -52 -42 -56 -42 -4 0 -13 16 -20 35
-32 90 -117 81 -288 -33 -29 -19 -55 -33 -56 -31 -2 2 -15 23 -30 47 -30 46
-30 46 -57 32 -24 -13 -200 -228 -200 -243 1 -7 9 -22 19 -34 28 -34 72 -21
135 40 l51 49 32 -37 c29 -33 36 -37 66 -31 18 3 49 17 67 31 19 14 38 25 44
25 6 0 24 13 41 28 16 15 47 35 67 45 35 15 37 15 43 -1 3 -10 23 -35 44 -56
57 -56 79 -52 159 27 37 36 85 74 107 85 l40 20 27 -21 c58 -48 73 -57 88 -53
8 2 31 7 50 10 23 4 55 24 95 61 33 30 65 55 71 55 6 0 17 -11 24 -25 7 -14
26 -33 42 -43 24 -15 35 -17 73 -8 30 7 44 15 42 25 -1 9 8 14 26 15 16 1 31
6 35 11 4 6 15 15 25 20 10 6 18 15 18 20 0 38 83 73 95 40 3 -8 14 -17 25
-20 11 -4 17 -10 14 -15 -3 -5 6 -12 20 -16 28 -7 54 16 54 46 1 20 -29 55
-52 64 -11 3 -21 15 -24 27 -3 11 -17 25 -32 30 -19 8 -22 12 -12 18 8 5 10
14 7 20 -14 21 -53 11 -97 -26z"/>
<path d="M1930 880 c-25 -9 -97 -41 -160 -70 -133 -61 -213 -90 -248 -90 -13
0 -40 9 -58 21 -42 26 -67 21 -187 -32 -49 -22 -110 -45 -137 -51 -44 -10 -51
-9 -75 11 -15 11 -35 21 -44 21 -9 0 -65 -18 -125 -40 -61 -22 -118 -40 -127
-40 -10 0 -27 13 -39 30 -12 17 -30 30 -42 30 -27 0 -150 -84 -193 -132 -65
-72 -101 -76 -130 -15 -25 53 -59 62 -76 20 -7 -15 -25 -56 -40 -90 -34 -73
-34 -71 -9 -103 l20 -25 34 40 c32 37 35 39 52 24 11 -9 38 -25 60 -37 l42
-20 53 35 c30 19 55 39 57 43 11 30 116 110 144 110 9 0 18 -7 22 -15 3 -8 16
-15 30 -15 14 0 28 -5 31 -11 10 -15 57 -3 159 42 l88 39 29 -25 c34 -28 101
-45 107 -26 2 6 9 11 16 11 6 0 45 16 86 36 41 20 98 42 126 49 47 12 52 11
80 -11 50 -41 179 -24 223 29 7 10 19 17 26 17 7 0 55 28 107 63 52 34 113 71
136 81 47 21 58 42 41 79 -16 35 -27 38 -79 17z"/>
<path d="M2205 519 c-139 -59 -359 -129 -430 -136 -59 -5 -66 -4 -95 21 -50
42 -83 36 -236 -44 l-135 -71 -32 27 c-41 35 -78 29 -205 -30 -54 -25 -108
-46 -120 -46 -20 0 -22 5 -22 51 0 57 -25 109 -51 109 -20 0 -63 -55 -55 -69
3 -5 -1 -11 -9 -15 -8 -3 -15 -17 -15 -30 0 -14 -7 -29 -16 -34 -13 -7 -14
-13 -4 -31 6 -13 9 -30 6 -38 -6 -16 19 -53 36 -53 4 0 8 11 8 24 0 36 10 56
29 55 10 0 11 -2 4 -6 -18 -7 -16 -32 2 -39 8 -4 12 -10 9 -15 -3 -5 1 -9 8
-9 7 0 18 -10 23 -23 8 -18 19 -23 58 -25 31 -2 55 2 69 12 12 9 29 16 36 16
8 0 27 11 44 25 41 35 101 51 133 37 14 -6 25 -18 25 -26 0 -14 15 -15 84 -7
4 1 6 8 2 16 -6 16 19 22 28 6 7 -10 56 -2 56 9 0 5 9 12 20 15 11 3 20 10 20
16 0 17 33 47 46 42 8 -3 29 5 48 16 33 21 35 21 65 4 17 -10 33 -25 36 -33 7
-20 76 -54 84 -41 4 5 27 9 51 8 25 -1 45 2 45 6 0 5 36 20 80 35 44 14 157
65 250 112 l170 85 1 43 c1 23 -2 42 -7 42 -5 0 -9 7 -9 15 0 23 -36 16 -135
-26z"/>
</g>
</svg>
