<?xml version="1.0" standalone="no"?>
<!DOCTYPE svg PUBLIC "-//W3C//DTD SVG 20010904//EN"
 "http://www.w3.org/TR/2001/REC-SVG-20010904/DTD/svg10.dtd">
<svg version="1.0" xmlns="http://www.w3.org/2000/svg"
 width="196.000000pt" height="220.000000pt" viewBox="0 0 196.000000 220.000000"
 preserveAspectRatio="xMidYMid meet">
<metadata>
Created by potrace 1.16, written by Peter Selinger 2001-2019
</metadata>
<g transform="translate(0.000000,220.000000) scale(0.100000,-0.100000)"
fill="#000000" stroke="none">
<path d="M891 2067 c-45 -12 -78 -45 -53 -54 6 -3 12 -11 12 -18 0 -10 8 -11
33 -5 47 13 120 21 217 25 47 2 89 4 93 5 14 0 3 45 -13 52 -25 11 -242 7
-289 -5z"/>
<path d="M288 2043 c-154 -3 -177 -6 -183 -20 -4 -11 2 -23 17 -35 19 -14 37
-16 98 -12 41 3 109 7 150 10 72 4 146 10 163 13 5 0 7 11 5 24 -4 26 10 24
-250 20z"/>
<path d="M668 1823 c-32 -5 -41 -25 -26 -58 l11 -24 121 6 c67 3 134 6 151 7
34 1 43 22 22 51 -13 16 -29 19 -133 21 -66 1 -131 0 -146 -3z"/>
<path d="M1348 1671 c-74 -15 -113 -63 -88 -110 12 -24 35 -28 43 -7 8 21 85
43 162 45 76 2 98 14 89 47 -9 33 -106 44 -206 25z"/>
<path d="M255 1660 c-177 -13 -203 -18 -210 -41 -13 -41 30 -55 105 -34 39 11
189 15 195 5 4 -6 20 -8 38 -5 18 3 59 7 92 8 52 2 60 5 63 23 7 48 -65 59
-283 44z"/>
<path d="M833 1432 c-3 -7 0 -24 7 -37 12 -23 14 -23 158 -19 109 3 150 8 161
18 12 13 12 17 -1 29 -21 21 -318 29 -325 9z"/>
<path d="M321 1344 c-144 -20 -165 -26 -169 -50 -4 -31 20 -47 50 -33 14 6 85
21 159 33 119 19 134 24 134 41 0 26 -37 28 -174 9z"/>
<path d="M718 1289 c-6 -16 9 -50 26 -61 6 -5 29 -6 51 -3 22 3 63 2 92 -3 60
-10 78 -3 69 26 -9 28 -55 43 -152 49 -64 4 -83 3 -86 -8z"/>
<path d="M1312 1244 c-11 -12 -9 -18 10 -38 21 -21 34 -24 136 -29 104 -6 112
-5 112 12 0 26 -19 39 -76 50 -91 18 -168 20 -182 5z"/>
<path d="M273 1119 c-35 -4 -67 -11 -73 -14 -13 -8 -13 -65 0 -65 6 0 10 -7
10 -15 0 -19 10 -19 36 -1 24 17 148 36 261 40 79 3 120 17 107 37 -3 5 -36 9
-74 9 -38 0 -72 5 -75 10 -7 12 -101 11 -192 -1z"/>
<path d="M881 1091 c-9 -6 -11 -18 -7 -38 l7 -29 92 1 c51 0 103 -2 117 -5 22
-4 25 -1 26 22 1 22 -6 29 -40 42 -45 17 -172 22 -195 7z"/>
<path d="M1678 989 c-62 -9 -151 -43 -169 -65 -15 -18 -3 -84 16 -84 7 0 16 8
20 19 6 21 101 66 160 76 22 3 46 9 52 13 15 9 5 53 -11 51 -6 -1 -37 -5 -68
-10z"/>
<path d="M587 861 c-52 -11 -63 -24 -51 -58 11 -31 13 -31 124 -18 36 4 92 8
125 9 58 1 60 2 57 26 -1 13 -7 29 -13 35 -12 12 -189 17 -242 6z"/>
<path d="M1051 850 c-52 -11 -48 -8 -56 -43 -5 -17 -3 -27 4 -27 6 0 11 -7 11
-15 0 -17 21 -20 36 -6 15 16 64 22 171 21 59 0 104 4 108 10 10 15 -4 47 -23
55 -27 12 -203 15 -251 5z"/>
<path d="M1450 648 c-19 -5 -40 -16 -46 -23 -6 -8 -14 -12 -17 -8 -4 3 -7 -8
-7 -25 0 -18 5 -32 10 -32 6 0 10 -6 10 -14 0 -20 30 -29 37 -10 10 28 55 39
212 52 89 7 114 24 66 42 -14 5 -51 10 -81 10 -30 0 -54 5 -54 10 0 12 -83 11
-130 -2z"/>
<path d="M534 540 c-68 -10 -94 -25 -94 -55 0 -16 6 -25 15 -25 8 0 15 -7 15
-15 0 -18 19 -19 57 -3 15 6 37 13 48 15 52 9 196 23 252 25 67 3 82 14 60 48
-11 19 -23 20 -157 19 -80 -1 -168 -5 -196 -9z"/>
<path d="M1194 466 c-3 -8 -2 -28 3 -43 10 -28 11 -28 136 -39 69 -7 166 -19
216 -28 50 -10 96 -14 101 -11 6 3 10 17 10 30 0 20 -8 26 -57 40 -82 24 -234
52 -325 60 -66 6 -79 5 -84 -9z"/>
<path d="M860 215 c-16 -19 -5 -81 16 -89 8 -3 24 -1 35 5 30 16 240 12 267
-5 12 -7 22 16 22 48 0 20 -9 25 -69 39 -90 22 -253 23 -271 2z"/>
<path d="M1667 203 c-12 -11 -7 -37 11 -60 15 -19 22 -21 57 -13 22 6 70 13
108 16 66 6 67 6 67 35 l0 29 -118 0 c-65 0 -122 -3 -125 -7z"/>
</g>
</svg>
