<?xml version="1.0" standalone="no"?>
<!DOCTYPE svg PUBLIC "-//W3C//DTD SVG 20010904//EN"
 "http://www.w3.org/TR/2001/REC-SVG-20010904/DTD/svg10.dtd">
<svg version="1.0" xmlns="http://www.w3.org/2000/svg"
 width="235.000000pt" height="189.000000pt" viewBox="0 0 235.000000 189.000000"
 preserveAspectRatio="xMidYMid meet">
<metadata>
Created by potrace 1.16, written by Peter Selinger 2001-2019
</metadata>
<g transform="translate(0.000000,189.000000) scale(0.100000,-0.100000)"
fill="#000000" stroke="none">
<path d="M1573 1785 c-78 -17 -102 -30 -114 -62 -7 -19 -6 -32 6 -49 18 -27
23 -29 48 -10 10 8 44 20 77 27 33 7 60 17 60 22 0 4 9 5 20 2 12 -4 20 -2 20
5 0 10 86 9 195 -3 14 -1 21 5 23 21 3 18 -5 26 -40 42 -52 24 -198 26 -295 5z"/>
<path d="M813 1715 c-86 -16 -93 -20 -93 -48 0 -49 10 -52 120 -37 56 7 157
15 224 19 113 6 121 7 124 27 7 46 -19 54 -166 53 -75 -1 -170 -7 -209 -14z"/>
<path d="M720 1515 c-6 -8 -10 -22 -8 -32 4 -24 51 -27 296 -18 191 7 192 7
192 30 0 13 -7 26 -16 29 -9 3 -114 6 -234 6 -178 0 -220 -3 -230 -15z"/>
<path d="M1570 1479 c-112 -19 -145 -42 -132 -91 5 -22 16 -22 117 -2 52 10
135 16 238 16 l157 1 0 23 c0 12 -5 26 -10 29 -35 22 -287 38 -370 24z"/>
<path d="M1291 1197 c-7 -9 -10 -25 -6 -37 6 -19 13 -20 240 -20 232 0 234 0
232 21 -1 12 -11 25 -22 29 -11 4 -112 11 -225 15 -180 6 -207 5 -219 -8z"/>
<path d="M940 1159 c-227 -11 -259 -21 -246 -74 8 -30 17 -30 136 -11 47 8
127 17 177 21 51 4 97 13 102 19 10 12 -3 57 -16 54 -4 -1 -73 -5 -153 -9z"/>
<path d="M1997 1051 c-54 -11 -65 -25 -46 -59 11 -19 22 -26 40 -25 13 1 83 7
154 12 72 6 131 10 133 11 9 1 -1 34 -15 48 -13 13 -39 17 -122 19 -58 1 -123
-2 -144 -6z"/>
<path d="M495 923 c-35 -8 -46 -32 -30 -63 8 -15 21 -30 28 -33 8 -3 59 -1
113 3 55 5 140 9 189 10 123 0 165 8 165 30 0 19 -26 34 -41 24 -5 -3 -9 1 -9
9 0 11 -27 15 -122 20 -132 8 -261 7 -293 0z"/>
<path d="M1281 850 c-84 -18 -113 -57 -72 -94 18 -17 28 -17 123 -5 57 6 147
13 200 15 54 1 102 5 108 9 17 10 11 30 -15 55 -24 22 -34 24 -163 26 -75 2
-157 -1 -181 -6z"/>
<path d="M347 624 c-157 -28 -280 -70 -285 -98 -2 -10 6 -27 18 -38 l22 -20
106 35 c59 20 145 43 191 52 102 20 125 30 116 53 -4 9 -8 23 -8 30 0 15 10
15 -160 -14z"/>
<path d="M749 613 c-17 -4 -24 -53 -8 -53 5 0 14 -12 20 -26 l10 -27 97 7 c53
4 98 10 100 15 1 4 39 6 83 5 91 -2 109 11 68 49 -18 17 -41 23 -104 29 -89 7
-241 8 -266 1z"/>
<path d="M1613 578 c1 -13 11 -31 22 -40 17 -15 35 -17 130 -12 61 3 112 7
113 9 2 2 24 -2 48 -10 32 -9 44 -10 44 -2 0 23 -15 34 -52 41 -21 4 -38 12
-38 18 0 7 -14 8 -40 4 -25 -4 -40 -2 -40 4 0 6 -37 10 -94 10 -92 0 -95 -1
-93 -22z"/>
<path d="M1130 293 c-41 -2 -79 -8 -84 -13 -12 -12 -17 -43 -8 -50 4 -3 12
-14 18 -25 7 -11 20 -19 30 -18 193 21 254 26 336 32 99 6 120 13 101 32 -6 6
-9 17 -7 24 9 23 -131 29 -386 18z"/>
<path d="M520 160 c-161 -6 -202 -14 -213 -43 -2 -7 4 -23 14 -36 l19 -23 87
15 c49 9 134 19 191 23 56 4 105 10 108 15 10 16 -8 59 -25 57 -9 -1 -90 -4
-181 -8z"/>
</g>
</svg>
