<?xml version="1.0" standalone="no"?>
<!DOCTYPE svg PUBLIC "-//W3C//DTD SVG 20010904//EN"
 "http://www.w3.org/TR/2001/REC-SVG-20010904/DTD/svg10.dtd">
<svg version="1.0" xmlns="http://www.w3.org/2000/svg"
 width="224.000000pt" height="110.000000pt" viewBox="0 0 224.000000 110.000000"
 preserveAspectRatio="xMidYMid meet">
<metadata>
Created by potrace 1.16, written by Peter Selinger 2001-2019
</metadata>
<g transform="translate(0.000000,110.000000) scale(0.100000,-0.100000)"
fill="#000000" stroke="none">
<path d="M510 951 c-91 -25 -132 -44 -198 -90 -80 -57 -118 -106 -106 -139 5
-14 14 -27 19 -29 6 -2 33 15 60 38 64 53 141 91 238 118 74 21 80 21 139 6
81 -20 118 -44 209 -132 106 -102 165 -128 284 -128 105 1 128 10 225 93 87
74 156 104 242 106 73 1 91 11 102 58 5 24 3 28 -20 34 -14 4 -60 4 -102 2
-95 -6 -164 -36 -248 -110 -83 -72 -131 -92 -213 -86 -93 7 -150 36 -244 123
-95 88 -200 146 -274 151 -27 2 -77 -5 -113 -15z"/>
<path d="M1645 686 c-59 -19 -119 -51 -220 -120 -195 -131 -284 -130 -532 10
-179 101 -209 114 -271 114 -65 0 -102 -15 -197 -80 -87 -61 -111 -91 -95
-120 6 -11 14 -20 19 -20 9 0 62 39 71 52 3 4 40 21 82 37 132 53 186 41 406
-93 117 -71 191 -96 280 -96 97 0 146 18 253 92 166 116 239 141 376 131 79
-6 92 2 79 51 -11 45 -162 70 -251 42z"/>
<path d="M1733 427 c-43 -9 -53 -15 -54 -31 -1 -17 -2 -18 -6 -3 -2 9 -6 17
-7 17 -17 0 -92 -48 -128 -82 -45 -42 -91 -66 -134 -72 -11 -2 -27 -7 -34 -11
-11 -7 -9 -10 6 -16 13 -5 7 -8 -23 -8 -24 -1 -43 4 -43 9 0 6 -27 10 -60 10
-33 0 -60 -4 -60 -10 0 -5 -4 -10 -10 -10 -5 0 -7 6 -4 14 3 9 -6 15 -32 19
-20 3 -98 35 -173 71 -214 102 -294 115 -422 67 -65 -25 -139 -84 -139 -112 0
-29 29 -35 64 -15 125 73 242 76 385 11 43 -19 88 -35 100 -35 12 0 24 -7 28
-16 3 -8 12 -13 20 -10 8 3 34 -6 58 -20 25 -14 49 -23 55 -19 5 3 24 -2 41
-12 23 -13 33 -15 36 -6 3 9 9 10 23 1 14 -9 28 -9 60 2 32 10 46 11 60 2 14
-9 21 -8 30 3 6 8 33 15 58 17 37 2 47 7 46 20 -1 13 4 16 26 11 23 -4 32 1
50 25 13 17 33 33 46 36 13 4 24 13 24 20 0 15 21 26 51 26 10 0 19 4 19 9 0
4 11 6 25 3 16 -3 25 0 25 8 0 7 8 10 20 7 25 -6 73 16 62 29 -4 5 4 0 17 -11
19 -17 38 -20 120 -20 l96 0 3 31 c3 30 2 30 -70 47 -79 19 -172 20 -255 4z"/>
</g>
</svg>
