<?xml version="1.0" standalone="no"?>
<!DOCTYPE svg PUBLIC "-//W3C//DTD SVG 20010904//EN"
 "http://www.w3.org/TR/2001/REC-SVG-20010904/DTD/svg10.dtd">
<svg version="1.0" xmlns="http://www.w3.org/2000/svg"
 width="249.000000pt" height="273.000000pt" viewBox="0 0 249.000000 273.000000"
 preserveAspectRatio="xMidYMid meet">
<metadata>
Created by potrace 1.16, written by Peter Selinger 2001-2019
</metadata>
<g transform="translate(0.000000,273.000000) scale(0.100000,-0.100000)"
fill="#000000" stroke="none">
<path d="M780 2583 c-135 -201 -222 -344 -240 -392 -19 -49 -19 -56 -5 -77 18
-28 51 -38 84 -26 18 6 27 22 38 63 8 30 29 80 48 112 19 32 35 65 35 73 0 8
4 14 9 14 5 0 18 20 30 44 11 24 43 79 71 121 27 43 50 81 50 86 0 15 -33 40
-46 35 -8 -3 -14 -1 -14 4 0 23 -18 6 -60 -57z"/>
<path d="M1670 2436 c-6 -8 -17 -13 -25 -10 -13 5 -105 -104 -105 -125 0 -6
-4 -11 -9 -11 -14 0 -83 -109 -76 -121 5 -7 12 -6 22 3 15 12 15 11 2 -9 -8
-14 -16 -18 -20 -11 -11 18 -26 1 -43 -49 -19 -54 -21 -93 -5 -93 6 0 9 -6 6
-13 -4 -10 3 -12 25 -9 19 3 32 12 35 23 3 11 9 19 13 19 8 0 34 57 36 75 1
25 17 55 28 55 16 0 40 45 32 59 -4 5 3 15 14 21 11 6 20 19 20 28 0 10 5 23
11 29 7 7 7 13 0 17 -14 9 -2 36 14 30 7 -3 21 8 31 25 10 17 22 31 26 31 4 0
8 7 8 15 0 8 -5 15 -11 15 -5 0 -7 5 -4 10 10 15 -11 12 -25 -4z"/>
<path d="M1020 2137 c-27 -56 -78 -152 -114 -213 -36 -61 -69 -125 -72 -142
-6 -27 -2 -33 27 -51 19 -12 37 -21 40 -21 10 0 186 372 205 431 19 63 16 84
-15 92 -19 5 -28 -7 -71 -96z"/>
<path d="M2093 1845 c-47 -58 -133 -208 -139 -243 -10 -51 7 -78 49 -80 27 -1
36 4 46 24 6 14 11 31 11 38 0 12 93 201 120 243 11 18 12 24 1 37 -22 27 -58
19 -88 -19z"/>
<path d="M443 1776 c-30 -39 -112 -229 -113 -263 0 -34 21 -73 41 -73 10 0 21
-4 24 -10 3 -5 16 -10 29 -10 19 0 30 16 69 98 25 53 52 120 58 147 7 28 16
55 21 61 13 18 -1 42 -37 64 -45 28 -60 25 -92 -14z"/>
<path d="M1400 1783 c-31 -22 -113 -150 -167 -260 -35 -73 -44 -100 -41 -134
3 -36 8 -45 37 -61 39 -22 43 -19 60 42 7 25 24 64 37 87 13 23 24 50 24 60 0
10 8 30 17 43 10 14 30 50 45 80 15 30 35 67 45 83 17 27 17 27 -8 51 -25 23
-28 24 -49 9z"/>
<path d="M1645 1421 c-42 -25 -110 -104 -136 -157 -19 -41 -20 -46 -6 -68 12
-18 24 -23 54 -22 34 2 40 6 62 46 13 25 48 75 78 111 29 36 53 71 53 76 0 10
-43 33 -63 33 -7 0 -26 -8 -42 -19z"/>
<path d="M872 1363 c-54 -26 -152 -155 -152 -200 0 -28 27 -43 63 -36 18 4 27
12 27 24 0 10 14 40 30 66 17 26 30 50 30 54 0 4 14 21 31 38 29 29 36 61 14
67 -5 2 -25 -4 -43 -13z"/>
<path d="M2200 1103 c-59 -67 -110 -154 -110 -188 0 -41 21 -58 72 -59 41 -1
42 -1 44 37 2 22 20 70 43 112 42 76 52 125 27 125 -8 0 -21 2 -29 6 -8 3 -27
-10 -47 -33z"/>
<path d="M389 998 c-64 -89 -139 -271 -139 -339 0 -32 5 -41 30 -54 33 -17 68
-19 90 -5 12 8 13 13 3 30 -7 11 -13 27 -13 35 0 28 81 260 101 287 10 15 19
34 19 41 0 20 -27 40 -41 31 -8 -4 -9 -3 -5 4 4 7 2 12 -3 12 -6 0 -25 -19
-42 -42z"/>
<path d="M1095 963 c-76 -92 -245 -345 -245 -367 0 -24 27 -49 42 -39 7 4 23
6 35 5 17 -3 32 14 78 92 33 54 55 102 52 111 -4 9 2 19 14 26 11 6 42 44 69
84 26 41 55 82 64 90 23 23 21 55 -3 55 -11 0 -26 3 -34 6 -10 4 -34 -17 -72
-63z"/>
<path d="M1693 895 c-35 -24 -213 -236 -235 -278 -25 -50 -20 -79 15 -91 38
-14 81 12 85 51 2 17 45 83 108 167 58 76 103 145 100 153 -7 18 -46 17 -73
-2z"/>
<path d="M2064 663 c-69 -74 -115 -179 -86 -197 15 -9 52 6 52 20 0 8 4 14 10
14 5 0 24 30 40 67 17 37 40 77 51 90 12 12 18 26 14 32 -13 21 -47 10 -81
-26z"/>
<path d="M713 488 c-190 -227 -251 -336 -211 -376 20 -20 59 -15 65 8 3 11 10
20 15 20 6 0 8 13 4 31 -9 47 19 98 133 244 55 71 100 134 98 140 -10 29 -40
10 -104 -67z"/>
</g>
</svg>
