<?xml version="1.0" standalone="no"?>
<!DOCTYPE svg PUBLIC "-//W3C//DTD SVG 20010904//EN"
 "http://www.w3.org/TR/2001/REC-SVG-20010904/DTD/svg10.dtd">
<svg version="1.0" xmlns="http://www.w3.org/2000/svg"
 width="436.000000pt" height="436.000000pt" viewBox="0 0 436.000000 436.000000"
 preserveAspectRatio="xMidYMid meet">

<g transform="translate(0.000000,436.000000) scale(0.100000,-0.100000)"
fill="#000000" stroke="none">
<path d="M1935 4288 c-362 -40 -696 -169 -1008 -388 -122 -85 -382 -345 -467
-467 -223 -319 -349 -648 -389 -1025 -46 -419 55 -886 270 -1256 101 -173 179
-273 339 -432 203 -203 383 -330 621 -436 548 -244 1170 -244 1718 0 238 106
418 233 621 436 203 203 330 383 436 621 244 548 244 1170 0 1718 -106 238
-233 418 -436 621 -159 160 -259 238 -432 339 -372 217 -848 317 -1273 269z
m516 -678 c132 -27 236 -63 354 -120 421 -204 705 -572 807 -1044 31 -145 31
-427 0 -572 -30 -138 -65 -241 -122 -359 -204 -421 -572 -705 -1044 -807 -145
-31 -427 -31 -572 0 -683 147 -1159 701 -1191 1387 -36 765 524 1430 1292
1534 109 15 364 5 476 -19z"/>
</g>
</svg>
