<?xml version="1.0" standalone="no"?>
<!DOCTYPE svg PUBLIC "-//W3C//DTD SVG 20010904//EN"
 "http://www.w3.org/TR/2001/REC-SVG-20010904/DTD/svg10.dtd">
<svg version="1.0" xmlns="http://www.w3.org/2000/svg"
 width="462.000000pt" height="462.000000pt" viewBox="0 0 462.000000 462.000000"
 preserveAspectRatio="xMidYMid meet">

<g transform="translate(0.000000,462.000000) scale(0.100000,-0.100000)"
fill="#000000" stroke="none">
<path d="M300 4569 c-104 -30 -210 -146 -232 -254 -43 -202 165 -410 367 -367
156 32 279 195 262 344 -12 101 -92 208 -191 257 -54 27 -151 36 -206 20z"/>
<path d="M1580 4569 c-104 -30 -210 -146 -232 -254 -43 -202 165 -410 367
-367 156 32 279 195 262 344 -12 101 -92 208 -191 257 -54 27 -151 36 -206 20z"/>
<path d="M2860 4569 c-104 -30 -210 -146 -232 -254 -43 -202 165 -410 367
-367 156 32 279 195 262 344 -12 101 -92 208 -191 257 -54 27 -151 36 -206 20z"/>
<path d="M4140 4569 c-104 -30 -210 -146 -232 -254 -43 -202 165 -410 367
-367 156 32 279 195 262 344 -12 101 -92 208 -191 257 -54 27 -151 36 -206 20z"/>
<path d="M300 3289 c-104 -30 -210 -146 -232 -254 -43 -202 165 -410 367 -367
156 32 279 195 262 344 -12 101 -92 208 -191 257 -54 27 -151 36 -206 20z"/>
<path d="M1580 3289 c-104 -30 -210 -146 -232 -254 -43 -202 165 -410 367
-367 156 32 279 195 262 344 -12 101 -92 208 -191 257 -54 27 -151 36 -206 20z"/>
<path d="M2860 3289 c-104 -30 -210 -146 -232 -254 -43 -202 165 -410 367
-367 156 32 279 195 262 344 -12 101 -92 208 -191 257 -54 27 -151 36 -206 20z"/>
<path d="M4140 3289 c-104 -30 -210 -146 -232 -254 -43 -202 165 -410 367
-367 156 32 279 195 262 344 -12 101 -92 208 -191 257 -54 27 -151 36 -206 20z"/>
<path d="M300 2009 c-104 -30 -210 -146 -232 -254 -43 -202 165 -410 367 -367
156 32 279 195 262 344 -12 101 -92 208 -191 257 -54 27 -151 36 -206 20z"/>
<path d="M1580 2009 c-104 -30 -210 -146 -232 -254 -43 -202 165 -410 367
-367 156 32 279 195 262 344 -12 101 -92 208 -191 257 -54 27 -151 36 -206 20z"/>
<path d="M2860 2009 c-104 -30 -210 -146 -232 -254 -43 -202 165 -410 367
-367 156 32 279 195 262 344 -12 101 -92 208 -191 257 -54 27 -151 36 -206 20z"/>
<path d="M4140 2009 c-104 -30 -210 -146 -232 -254 -43 -202 165 -410 367
-367 156 32 279 195 262 344 -12 101 -92 208 -191 257 -54 27 -151 36 -206 20z"/>
<path d="M300 729 c-104 -30 -210 -146 -232 -254 -43 -202 165 -410 367 -367
156 32 279 195 262 344 -12 101 -92 208 -191 257 -54 27 -151 36 -206 20z"/>
<path d="M1580 729 c-104 -30 -210 -146 -232 -254 -43 -202 165 -410 367 -367
156 32 279 195 262 344 -12 101 -92 208 -191 257 -54 27 -151 36 -206 20z"/>
<path d="M2860 729 c-104 -30 -210 -146 -232 -254 -43 -202 165 -410 367 -367
156 32 279 195 262 344 -12 101 -92 208 -191 257 -54 27 -151 36 -206 20z"/>
<path d="M4140 729 c-104 -30 -210 -146 -232 -254 -43 -202 165 -410 367 -367
156 32 279 195 262 344 -12 101 -92 208 -191 257 -54 27 -151 36 -206 20z"/>
</g>
</svg>
