<?xml version="1.0" standalone="no"?>
<!DOCTYPE svg PUBLIC "-//W3C//DTD SVG 20010904//EN"
 "http://www.w3.org/TR/2001/REC-SVG-20010904/DTD/svg10.dtd">
<svg version="1.0" xmlns="http://www.w3.org/2000/svg"
 width="364.000000pt" height="380.000000pt" viewBox="0 0 364.000000 380.000000"
 preserveAspectRatio="xMidYMid meet">
<metadata>
Created by potrace 1.16, written by Peter Selinger 2001-2019
</metadata>
<g transform="translate(0.000000,380.000000) scale(0.100000,-0.100000)"
fill="#000000" stroke="none">
<path d="M2446 3666 c-15 -9 -43 -16 -60 -16 -18 0 -36 -3 -40 -7 -4 -4 -22
-8 -39 -9 -17 -1 -33 -7 -35 -13 -2 -6 -15 -11 -29 -11 -42 0 -195 -86 -386
-218 -237 -162 -248 -169 -326 -200 -58 -23 -81 -26 -191 -26 -122 -1 -127 0
-220 37 -235 94 -377 90 -538 -15 -179 -117 -308 -368 -318 -623 -3 -60 -10
-137 -15 -170 -17 -95 -6 -299 18 -367 45 -124 102 -183 353 -373 243 -183
478 -415 666 -660 73 -93 166 -209 208 -257 230 -263 548 -459 833 -514 183
-35 462 -9 598 57 170 81 302 250 371 474 27 87 28 98 28 305 0 202 -2 224
-32 365 -17 83 -40 182 -51 220 -36 129 -74 380 -73 480 1 58 11 127 26 184 9
35 15 66 12 69 -3 3 -2 10 3 16 5 6 12 30 14 52 3 23 12 55 21 71 8 17 18 49
22 72 4 23 10 41 15 41 4 0 8 8 8 18 0 27 19 110 31 131 5 11 10 38 10 60 0
22 4 42 9 45 15 9 12 168 -4 244 -38 184 -191 365 -389 462 -132 65 -195 81
-346 87 -101 3 -131 1 -154 -11z m384 -86 c150 -51 281 -151 358 -273 118
-189 116 -314 -9 -716 -26 -87 -28 -97 -14 -118 14 -21 14 -23 -4 -23 -15 0
-23 -10 -30 -37 -16 -63 -31 -157 -31 -194 1 -19 -2 -62 -6 -96 -10 -97 23
-326 67 -462 42 -130 81 -408 82 -586 0 -162 -24 -267 -94 -413 -83 -172 -213
-282 -389 -331 -437 -121 -854 47 -1232 499 -44 52 -119 147 -167 210 -180
239 -406 461 -682 671 -177 134 -225 182 -269 268 -54 109 -62 161 -63 421 -2
283 8 340 81 485 14 28 35 64 46 80 25 36 126 149 138 153 5 2 32 19 60 38 68
46 147 68 214 60 29 -3 117 -29 196 -57 129 -46 154 -52 249 -56 119 -6 218
10 304 51 64 30 285 175 292 191 2 7 19 19 36 26 18 7 40 21 50 30 9 8 30 22
45 30 15 8 51 29 80 47 28 18 60 35 70 39 9 3 24 11 32 18 8 6 35 19 60 29 25
10 54 22 65 27 28 12 127 17 275 14 97 -2 139 -8 190 -25z"/>
</g>
</svg>
