<?xml version="1.0" standalone="no"?>
<!DOCTYPE svg PUBLIC "-//W3C//DTD SVG 20010904//EN"
 "http://www.w3.org/TR/2001/REC-SVG-20010904/DTD/svg10.dtd">
<svg version="1.0" xmlns="http://www.w3.org/2000/svg"
 width="483.000000pt" height="373.000000pt" viewBox="0 0 483.000000 373.000000"
 preserveAspectRatio="xMidYMid meet">
<metadata>
Created by potrace 1.16, written by Peter Selinger 2001-2019
</metadata>
<g transform="translate(0.000000,373.000000) scale(0.100000,-0.100000)"
fill="#000000" stroke="none">
<path d="M3369 3635 c-159 -27 -294 -81 -441 -178 -110 -72 -184 -142 -309
-289 -228 -267 -251 -289 -404 -366 -203 -102 -453 -163 -822 -202 -309 -32
-427 -57 -567 -120 -189 -85 -318 -211 -441 -430 -26 -47 -62 -101 -80 -120
-67 -72 -173 -270 -210 -391 -43 -147 10 -344 134 -494 99 -120 306 -225 531
-271 83 -16 209 -20 460 -14 58 2 157 -2 220 -9 262 -25 355 -68 859 -391 233
-149 435 -226 624 -237 117 -7 347 17 521 54 336 71 734 261 961 460 149 129
273 311 310 453 8 30 15 89 15 130 0 182 -66 309 -311 595 -119 139 -176 224
-212 315 -43 109 -50 179 -46 495 6 495 4 554 -15 620 -33 112 -98 204 -194
272 -158 114 -363 155 -583 118z m321 -116 c119 -24 209 -70 284 -145 111
-111 136 -216 115 -484 -8 -96 -14 -292 -13 -435 0 -254 1 -262 28 -350 45
-149 96 -229 282 -446 163 -190 222 -287 250 -406 19 -84 13 -130 -30 -219
-95 -198 -281 -362 -572 -508 -300 -150 -617 -242 -929 -268 -120 -10 -156 -9
-250 5 -201 30 -328 85 -620 272 -378 241 -533 309 -770 336 -49 5 -211 9
-360 8 -329 -2 -405 9 -589 88 -207 88 -310 199 -338 361 -11 64 -10 75 11
138 27 80 87 204 99 204 5 0 36 53 71 118 57 108 186 289 265 372 103 107 228
185 380 235 113 38 189 49 498 74 75 6 180 18 235 27 54 8 127 19 163 25 84
12 277 77 371 124 156 78 233 143 334 280 50 68 228 278 273 322 130 127 332
232 537 278 86 19 163 18 275 -6z"/>
</g>
</svg>
