<?xml version="1.0" standalone="no"?>
<!DOCTYPE svg PUBLIC "-//W3C//DTD SVG 20010904//EN"
 "http://www.w3.org/TR/2001/REC-SVG-20010904/DTD/svg10.dtd">
<svg version="1.0" xmlns="http://www.w3.org/2000/svg"
 width="278.000000pt" height="361.000000pt" viewBox="0 0 278.000000 361.000000"
 preserveAspectRatio="xMidYMid meet">
<metadata>
Created by potrace 1.16, written by Peter Selinger 2001-2019
</metadata>
<g transform="translate(0.000000,361.000000) scale(0.100000,-0.100000)"
fill="#000000" stroke="none">
<path d="M1920 3479 c-101 -27 -298 -125 -392 -196 -42 -32 -125 -101 -183
-153 -142 -126 -272 -223 -354 -265 -37 -18 -135 -57 -217 -85 -388 -135 -547
-286 -562 -537 -6 -108 25 -218 119 -416 66 -137 73 -160 101 -305 23 -125 29
-177 26 -257 -5 -122 -28 -179 -112 -275 -124 -141 -146 -246 -87 -398 38 -95
129 -240 199 -314 51 -55 142 -123 210 -157 117 -59 358 -78 522 -42 151 34
376 123 445 175 46 35 194 227 254 328 28 48 56 90 62 94 23 14 98 194 135
324 39 135 39 135 39 320 0 102 -4 258 -8 347 -10 181 -3 223 54 334 51 102
146 234 239 334 60 63 178 225 205 280 38 77 67 200 72 312 5 85 2 112 -16
171 -87 288 -433 463 -751 381z m354 -135 c141 -36 252 -112 292 -198 19 -41
24 -68 24 -136 0 -192 -56 -307 -265 -545 -153 -175 -254 -335 -300 -474 -19
-57 -18 -54 -17 -470 2 -334 -4 -362 -118 -626 -28 -66 -62 -147 -74 -180 -60
-156 -185 -361 -246 -401 -34 -22 -160 -73 -250 -99 -213 -64 -485 -57 -605
16 -131 80 -258 229 -334 393 -60 131 -55 173 38 294 88 116 130 182 141 222
23 84 28 212 14 310 -33 225 -54 301 -110 395 -30 52 -80 188 -99 270 -19 81
-7 204 23 237 12 13 36 43 54 68 73 97 177 156 419 238 292 99 358 140 694
433 93 81 166 130 274 184 158 80 310 104 445 69z"/>
<path d="M2035 3193 c-184 -24 -360 -137 -703 -450 -117 -107 -135 -119 -251
-174 -293 -138 -399 -203 -466 -287 -114 -144 -100 -245 72 -503 41 -62 75
-126 82 -155 20 -77 25 -187 12 -256 -37 -195 -180 -514 -240 -533 -30 -9 -54
-83 -49 -149 10 -116 115 -267 223 -320 73 -36 194 -59 268 -52 67 7 234 66
292 104 51 33 143 118 172 157 37 51 86 154 80 169 -4 9 -1 13 6 10 8 -3 17
12 23 38 6 24 25 88 43 143 90 288 122 413 155 611 20 116 42 228 50 250 24
67 84 194 122 256 36 59 168 233 238 314 48 56 119 192 152 294 22 68 27 105
28 186 1 96 0 103 -36 176 -43 86 -107 151 -164 167 -39 11 -53 11 -109 4z
m168 -124 c56 -43 71 -172 37 -299 -36 -130 -90 -223 -211 -365 -132 -154
-182 -223 -241 -330 -88 -160 -116 -253 -148 -498 -32 -249 -164 -718 -248
-882 -73 -143 -185 -236 -352 -291 -180 -58 -356 35 -429 226 -35 91 -29 128
28 202 28 35 58 74 69 88 19 25 61 105 88 168 8 17 20 47 28 65 46 102 66 190
67 292 1 56 -2 108 -6 115 -4 6 -14 39 -21 73 -10 42 -30 85 -62 131 -26 37
-53 78 -61 90 -8 11 -29 44 -47 71 -42 63 -56 167 -31 226 42 100 211 219 465
324 147 61 216 108 332 220 83 81 126 117 255 218 82 64 240 149 310 167 17 4
58 8 91 9 48 1 67 -4 87 -20z"/>
<path d="M1925 2891 c-191 -68 -318 -151 -535 -351 -194 -178 -280 -245 -387
-302 -117 -62 -139 -86 -148 -163 -8 -78 5 -112 99 -254 103 -155 119 -192
125 -296 10 -155 -17 -280 -103 -480 -67 -154 -93 -195 -160 -244 -64 -48 -86
-76 -86 -112 0 -63 134 -65 256 -5 98 49 189 118 214 163 11 21 24 45 29 53 5
8 40 80 76 160 37 80 97 206 134 280 36 74 66 140 66 145 0 6 3 12 6 15 9 7
84 178 97 220 6 19 14 53 18 75 10 55 94 276 137 360 29 55 43 80 59 99 45 55
196 300 228 371 67 144 75 212 31 256 -35 35 -79 37 -156 10z m90 -113 c-18
-84 -98 -219 -255 -429 -96 -129 -166 -285 -235 -518 -45 -153 -58 -188 -162
-406 -278 -587 -278 -586 -423 -664 -45 -24 -83 -41 -86 -38 -3 2 23 31 56 63
75 73 172 220 201 305 12 35 30 75 39 89 28 40 43 153 39 290 -4 117 -6 130
-37 195 -18 38 -60 106 -92 151 -84 116 -110 168 -110 224 0 58 17 75 122 123
117 53 167 89 402 290 27 23 69 63 94 89 24 26 70 64 101 85 31 21 58 41 61
44 8 9 272 139 282 139 6 0 7 -14 3 -32z"/>
</g>
</svg>
