<?xml version="1.0" standalone="no"?>
<!DOCTYPE svg PUBLIC "-//W3C//DTD SVG 20010904//EN"
 "http://www.w3.org/TR/2001/REC-SVG-20010904/DTD/svg10.dtd">
<svg version="1.0" xmlns="http://www.w3.org/2000/svg"
 width="422.000000pt" height="331.000000pt" viewBox="0 0 422.000000 331.000000"
 preserveAspectRatio="xMidYMid meet">
<metadata>
Created by potrace 1.16, written by Peter Selinger 2001-2019
</metadata>
<g transform="translate(0.000000,331.000000) scale(0.100000,-0.100000)"
fill="#000000" stroke="none">
<path d="M1305 3265 c-129 -27 -337 -123 -472 -218 -162 -115 -313 -290 -448
-520 -187 -320 -254 -579 -272 -1049 -12 -316 85 -573 347 -918 156 -205 307
-300 585 -370 285 -72 475 -86 650 -49 187 39 237 58 690 264 94 43 222 94
286 115 194 64 245 70 574 68 l290 -3 90 28 c220 67 360 170 434 318 52 103
64 168 59 304 -7 153 -38 232 -177 435 -58 85 -149 221 -202 302 -105 157
-165 229 -268 322 -63 56 -106 86 -326 228 -55 35 -172 122 -260 193 -238 191
-327 246 -527 326 -254 102 -440 158 -643 193 -82 14 -175 30 -206 36 -69 13
-127 11 -204 -5z m400 -109 c44 -9 103 -20 130 -25 121 -23 598 -193 705 -253
65 -36 159 -105 330 -243 69 -55 170 -130 225 -166 55 -36 141 -92 190 -125
131 -85 256 -214 350 -359 43 -66 131 -197 196 -291 160 -231 189 -299 189
-449 0 -222 -98 -386 -283 -474 -113 -54 -194 -79 -317 -98 -88 -13 -124 -14
-225 -4 -158 15 -231 14 -343 -4 -162 -26 -356 -98 -687 -252 -335 -157 -478
-202 -671 -210 -142 -7 -231 4 -434 53 -265 63 -390 146 -547 362 -160 219
-240 375 -279 547 -16 67 -19 120 -18 330 1 316 20 453 91 670 38 114 166 363
245 475 72 103 184 238 234 281 11 9 26 25 34 35 13 16 76 60 145 101 91 54
251 100 385 111 30 2 58 7 62 10 11 11 206 -4 293 -22z"/>
</g>
</svg>
