<?xml version="1.0" standalone="no"?>
<!DOCTYPE svg PUBLIC "-//W3C//DTD SVG 20010904//EN"
 "http://www.w3.org/TR/2001/REC-SVG-20010904/DTD/svg10.dtd">
<svg version="1.0" xmlns="http://www.w3.org/2000/svg"
 width="492.000000pt" height="304.000000pt" viewBox="0 0 492.000000 304.000000"
 preserveAspectRatio="xMidYMid meet">
<metadata>
Created by potrace 1.16, written by Peter Selinger 2001-2019
</metadata>
<g transform="translate(0.000000,304.000000) scale(0.100000,-0.100000)"
fill="#000000" stroke="none">
<path d="M1403 2935 c-76 -21 -116 -39 -180 -82 -107 -71 -231 -201 -285 -299
-31 -56 -109 -269 -124 -337 -7 -37 -20 -119 -28 -183 -13 -109 -16 -118 -54
-167 -51 -68 -149 -148 -285 -232 -123 -77 -216 -158 -254 -222 -42 -72 -83
-182 -83 -223 0 -91 101 -222 237 -307 142 -88 275 -124 453 -124 130 1 215
15 445 76 151 40 195 48 275 49 89 1 101 -2 161 -31 69 -34 122 -85 278 -266
95 -110 153 -162 261 -235 219 -147 481 -236 803 -273 188 -21 543 -2 782 43
75 13 243 56 270 67 11 5 52 21 90 36 101 38 248 119 330 181 95 71 214 196
258 273 190 323 73 549 -381 735 -151 63 -191 85 -227 128 -49 59 -66 118 -85
304 -24 234 -68 395 -137 494 -132 192 -389 335 -711 396 -99 19 -261 15 -397
-10 -99 -19 -113 -23 -255 -80 -189 -75 -339 -95 -451 -59 -46 15 -74 36 -192
151 -116 112 -149 139 -214 170 -67 31 -88 36 -162 39 -54 2 -106 -3 -138 -12z
m266 -95 c27 -13 94 -69 175 -149 148 -145 190 -173 301 -201 152 -39 284 -22
505 64 74 29 155 58 180 64 82 20 264 34 346 28 269 -22 536 -151 643 -311 62
-92 100 -235 121 -460 17 -188 43 -270 113 -359 45 -56 126 -105 294 -176 81
-34 174 -78 205 -97 78 -46 145 -115 158 -161 49 -176 -76 -410 -315 -590 -88
-66 -300 -171 -427 -211 -219 -69 -562 -107 -878 -98 -289 8 -500 58 -710 168
-136 71 -237 155 -360 299 -176 206 -276 281 -426 316 -106 25 -200 13 -473
-58 -229 -59 -240 -61 -366 -61 -110 -1 -140 3 -195 22 -139 48 -273 154 -301
238 -17 53 -5 133 32 214 41 89 110 155 252 237 156 92 302 215 340 288 9 17
23 85 32 150 27 205 61 325 133 474 15 30 27 61 27 67 0 43 180 214 279 265
114 59 236 73 315 38z"/>
</g>
</svg>
