<?xml version="1.0" standalone="no"?>
<!DOCTYPE svg PUBLIC "-//W3C//DTD SVG 20010904//EN"
 "http://www.w3.org/TR/2001/REC-SVG-20010904/DTD/svg10.dtd">
<svg version="1.0" xmlns="http://www.w3.org/2000/svg"
 width="302.000000pt" height="139.000000pt" viewBox="0 0 302.000000 139.000000"
 preserveAspectRatio="xMidYMid meet">
<metadata>
Created by potrace 1.16, written by Peter Selinger 2001-2019
</metadata>
<g transform="translate(0.000000,139.000000) scale(0.100000,-0.100000)"
fill="#000000" stroke="none">
<path d="M2626 1341 c-3 -5 -11 -67 -16 -137 -13 -153 -28 -201 -80 -247 -45
-41 -126 -63 -199 -52 -110 15 -114 17 -187 86 -40 38 -85 71 -100 75 -39 10
-128 -10 -181 -41 -62 -37 -97 -91 -122 -187 -45 -171 -63 -217 -102 -262 -28
-31 -55 -50 -90 -61 -78 -26 -107 -16 -201 70 -98 91 -169 128 -253 133 -127
8 -222 -67 -345 -274 -111 -188 -196 -258 -310 -257 -113 1 -147 37 -176 187
-15 75 -27 96 -55 96 -28 0 -39 -31 -39 -107 1 -112 43 -178 145 -225 43 -19
67 -23 165 -23 100 0 121 3 162 23 79 39 137 100 226 237 120 186 184 245 262
245 44 0 64 -13 157 -101 99 -93 157 -119 264 -119 51 0 81 6 112 21 112 57
142 101 191 287 20 73 43 144 52 157 24 36 65 63 114 74 l42 9 63 -58 c77 -72
105 -87 186 -99 78 -11 87 -11 172 -4 43 3 74 11 84 21 9 9 23 17 32 18 24 4
89 82 102 123 6 20 13 104 16 187 l6 151 -31 31 c-31 32 -56 40 -66 23z"/>
</g>
</svg>
