<?xml version="1.0" standalone="no"?>
<!DOCTYPE svg PUBLIC "-//W3C//DTD SVG 20010904//EN"
 "http://www.w3.org/TR/2001/REC-SVG-20010904/DTD/svg10.dtd">
<svg version="1.0" xmlns="http://www.w3.org/2000/svg"
 width="201.000000pt" height="170.000000pt" viewBox="0 0 201.000000 170.000000"
 preserveAspectRatio="xMidYMid meet">
<metadata>
Created by potrace 1.16, written by Peter Selinger 2001-2019
</metadata>
<g transform="translate(0.000000,170.000000) scale(0.100000,-0.100000)"
fill="#000000" stroke="none">
<path d="M1650 1383 c-190 -114 -392 -255 -735 -512 -218 -163 -288 -217 -417
-325 -66 -55 -67 -55 -43 -18 14 20 29 42 34 48 21 26 51 95 51 119 0 33 -41
75 -73 75 -58 0 -417 -272 -417 -316 0 -7 13 -15 30 -19 25 -5 40 2 107 52 83
62 171 123 178 123 3 0 -17 -30 -43 -68 -66 -91 -129 -198 -142 -238 -14 -41
0 -66 52 -93 43 -22 57 -17 129 45 31 27 93 81 139 119 46 39 117 102 158 140
40 39 80 72 86 75 7 3 28 17 47 33 19 15 72 59 119 97 47 38 93 76 102 84 10
9 41 32 70 52 48 34 160 120 198 152 21 19 331 238 418 296 39 27 72 54 72 62
0 22 -23 64 -34 63 -6 0 -45 -21 -86 -46z"/>
<path d="M1724 1103 c-225 -135 -361 -242 -349 -275 7 -18 58 -32 63 -17 9 24
263 216 341 258 14 8 28 17 31 21 3 4 22 15 43 25 39 18 50 48 21 59 -9 3 -17
6 -18 6 -1 0 -60 -35 -132 -77z"/>
<path d="M1055 665 c-16 -13 -56 -44 -87 -69 -31 -25 -61 -46 -65 -46 -15 0
-177 -141 -196 -171 -10 -15 -43 -44 -72 -64 -47 -31 -174 -160 -183 -185 -2
-5 8 -12 21 -15 21 -6 33 1 69 41 63 69 68 74 79 74 6 0 8 4 4 9 -3 5 -1 12 4
16 6 3 8 13 5 23 -4 12 -3 13 3 4 10 -13 51 17 121 91 19 20 39 37 44 37 9 0
53 36 104 85 17 17 67 57 110 90 94 71 104 80 104 94 0 19 -34 12 -65 -14z"/>
</g>
</svg>
