<?xml version="1.0" standalone="no"?>
<!DOCTYPE svg PUBLIC "-//W3C//DTD SVG 20010904//EN"
 "http://www.w3.org/TR/2001/REC-SVG-20010904/DTD/svg10.dtd">
<svg version="1.0" xmlns="http://www.w3.org/2000/svg"
 width="225.000000pt" height="105.000000pt" viewBox="0 0 225.000000 105.000000"
 preserveAspectRatio="xMidYMid meet">
<metadata>
Created by potrace 1.16, written by Peter Selinger 2001-2019
</metadata>
<g transform="translate(0.000000,105.000000) scale(0.100000,-0.100000)"
fill="#000000" stroke="none">
<path d="M1984 893 c-91 -142 -125 -190 -186 -263 -152 -181 -336 -273 -506
-255 -54 6 -62 9 -56 23 5 10 10 54 12 99 4 99 -19 164 -79 218 -33 30 -46 35
-87 35 -55 0 -113 -33 -137 -80 -19 -37 -19 -130 -1 -175 8 -18 33 -54 56 -79
47 -51 47 -53 -50 -79 -87 -24 -142 -29 -216 -17 -95 15 -159 52 -212 123 -55
72 -86 94 -107 77 -23 -19 -18 -42 24 -106 45 -70 108 -119 216 -171 73 -35
89 -38 178 -41 117 -5 214 16 282 59 42 27 50 28 83 19 72 -20 222 -24 289 -7
156 40 246 115 410 336 51 69 195 349 187 363 -3 4 -14 8 -25 8 -14 0 -36 -26
-75 -87z m-840 -284 c14 -70 -2 -154 -34 -174 -15 -10 -50 23 -67 63 -18 42
-4 92 34 122 38 29 59 26 67 -11z"/>
<path d="M272 698 c-5 -7 -13 -70 -17 -140 -7 -121 -6 -127 15 -148 33 -33 64
-23 68 20 1 19 7 65 13 103 12 76 8 74 109 52 36 -8 77 -14 93 -15 66 -1 5 77
-78 98 -51 14 -178 42 -186 42 -4 0 -11 -6 -17 -12z"/>
</g>
</svg>
