<?xml version="1.0" standalone="no"?>
<!DOCTYPE svg PUBLIC "-//W3C//DTD SVG 20010904//EN"
 "http://www.w3.org/TR/2001/REC-SVG-20010904/DTD/svg10.dtd">
<svg version="1.0" xmlns="http://www.w3.org/2000/svg"
 width="225.000000pt" height="117.000000pt" viewBox="0 0 225.000000 117.000000"
 preserveAspectRatio="xMidYMid meet">
<metadata>
Created by potrace 1.16, written by Peter Selinger 2001-2019
</metadata>
<g transform="translate(0.000000,117.000000) scale(0.100000,-0.100000)"
fill="#000000" stroke="none">
<path d="M1290 1065 c-137 -20 -230 -41 -355 -81 -110 -35 -386 -162 -399
-183 -4 -6 -14 -11 -23 -11 -28 0 -152 -92 -216 -159 -70 -75 -134 -191 -143
-261 -7 -55 24 -146 67 -194 16 -18 55 -45 89 -60 178 -80 340 -48 489 97 92
90 129 161 124 237 -3 58 -21 87 -85 134 -35 25 -53 31 -109 34 -62 4 -72 1
-140 -34 -144 -76 -192 -150 -153 -235 36 -80 177 -117 243 -63 49 39 71 68
71 92 0 31 -65 92 -99 93 -41 1 65 48 110 48 49 1 62 -16 50 -68 -18 -80 -85
-155 -193 -213 -84 -46 -144 -61 -211 -53 -91 10 -123 26 -137 70 -39 117 64
293 239 407 41 27 81 58 88 68 8 11 21 20 29 20 8 0 14 5 14 10 0 6 6 10 13
10 7 0 30 9 52 20 22 11 45 20 53 20 7 0 39 13 70 29 67 35 90 44 117 47 100
11 120 14 123 23 2 5 10 7 18 4 8 -3 14 -1 14 4 0 5 8 9 18 10 36 2 182 32
194 40 7 4 33 8 58 9 25 1 47 3 50 4 10 4 266 0 330 -5 60 -5 168 -17 180 -20
3 -1 21 -5 40 -9 66 -14 135 -39 162 -57 33 -24 38 -24 38 0 0 46 -122 113
-260 143 -209 46 -437 58 -620 33z"/>
</g>
</svg>
