<?xml version="1.0" standalone="no"?>
<!DOCTYPE svg PUBLIC "-//W3C//DTD SVG 20010904//EN"
 "http://www.w3.org/TR/2001/REC-SVG-20010904/DTD/svg10.dtd">
<svg version="1.0" xmlns="http://www.w3.org/2000/svg"
 width="230.000000pt" height="125.000000pt" viewBox="0 0 230.000000 125.000000"
 preserveAspectRatio="xMidYMid meet">
<metadata>
Created by potrace 1.16, written by Peter Selinger 2001-2019
</metadata>
<g transform="translate(0.000000,125.000000) scale(0.100000,-0.100000)"
fill="#000000" stroke="none">
<path d="M1826 940 c-179 -89 -215 -111 -216 -131 0 -4 9 -17 19 -30 16 -20
22 -22 42 -12 13 7 95 43 182 82 114 50 157 65 152 53 -4 -9 -9 -58 -12 -107
-5 -77 -3 -93 11 -108 30 -30 43 -20 50 36 8 63 36 168 47 181 30 34 -12 137
-54 135 -12 0 -112 -45 -221 -99z"/>
<path d="M1755 717 c-89 -92 -159 -152 -221 -194 -95 -62 -219 -117 -295 -129
l-42 -7 25 34 c63 83 49 206 -27 241 -35 16 -107 -14 -144 -59 -41 -50 -67
-137 -54 -184 l10 -37 -76 -25 c-183 -60 -388 -81 -520 -53 -43 9 -83 24 -96
36 -28 27 -45 25 -45 -4 0 -33 55 -79 122 -102 43 -15 83 -19 208 -19 171 0
258 15 388 66 69 28 74 28 103 14 98 -51 306 -5 474 104 123 80 283 251 341
363 17 32 11 88 -9 88 -7 0 -70 -60 -142 -133z"/>
</g>
</svg>
