<?xml version="1.0" standalone="no"?>
<!DOCTYPE svg PUBLIC "-//W3C//DTD SVG 20010904//EN"
 "http://www.w3.org/TR/2001/REC-SVG-20010904/DTD/svg10.dtd">
<svg version="1.0" xmlns="http://www.w3.org/2000/svg"
 width="120.000000pt" height="96.000000pt" viewBox="0 0 120.000000 96.000000"
 preserveAspectRatio="xMidYMid meet">
<metadata>
Created by potrace 1.16, written by Peter Selinger 2001-2019
</metadata>
<g transform="translate(0.000000,96.000000) scale(0.100000,-0.100000)"
fill="#000000" stroke="none">
<path d="M798 863 c-9 -9 -35 -71 -58 -137 -40 -117 -68 -172 -76 -151 -44
105 -109 175 -164 175 -38 0 -46 -14 -70 -116 -11 -49 -25 -106 -31 -128 l-10
-39 -24 35 c-29 42 -96 74 -124 58 -14 -7 -21 -26 -26 -72 -9 -94 -34 -227
-51 -280 -21 -66 -16 -102 16 -106 17 -2 29 4 38 18 19 31 68 168 76 214 l7
38 33 -35 c35 -39 65 -50 116 -45 45 4 67 37 85 128 27 132 20 122 60 84 21
-20 50 -36 73 -39 20 -4 44 -9 53 -11 9 -3 23 1 30 9 8 7 22 16 31 20 24 9 49
59 73 151 l21 79 63 -101 c35 -56 66 -104 69 -106 4 -2 22 -7 40 -11 30 -6 32
-5 32 20 0 24 -79 191 -129 272 -23 37 -96 93 -120 93 -9 0 -24 -7 -33 -17z"/>
</g>
</svg>
