<?xml version="1.0" standalone="no"?>
<!DOCTYPE svg PUBLIC "-//W3C//DTD SVG 20010904//EN"
 "http://www.w3.org/TR/2001/REC-SVG-20010904/DTD/svg10.dtd">
<svg version="1.0" xmlns="http://www.w3.org/2000/svg"
 width="136.000000pt" height="136.000000pt" viewBox="0 0 136.000000 136.000000"
 preserveAspectRatio="xMidYMid meet">
<metadata>
Created by potrace 1.16, written by Peter Selinger 2001-2019
</metadata>
<g transform="translate(0.000000,136.000000) scale(0.100000,-0.100000)"
fill="#000000" stroke="none">
<path d="M650 1106 c-184 -122 -345 -382 -426 -686 -31 -120 -41 -209 -25
-239 10 -18 19 -22 54 -19 48 3 38 -16 118 237 46 147 133 330 200 419 69 92
212 252 231 258 24 7 23 29 -4 54 -34 31 -75 25 -148 -24z"/>
<path d="M894 884 c-126 -84 -288 -303 -310 -419 -14 -75 56 -88 92 -18 10 21
23 42 27 48 7 9 36 52 62 94 38 61 151 204 166 209 5 2 9 10 9 18 0 7 14 20
30 29 37 19 39 42 4 55 -35 14 -36 13 -80 -16z"/>
<path d="M1169 742 c-1 -4 -1 -11 0 -16 1 -5 -5 -6 -13 -3 -19 7 -133 -79
-175 -131 -17 -22 -38 -56 -46 -76 -14 -34 -14 -36 9 -51 14 -10 30 -13 43 -8
23 9 102 96 129 142 10 17 25 33 34 36 8 3 22 18 31 33 11 20 24 29 40 28 19
-1 25 5 27 24 3 24 0 26 -38 27 -22 1 -41 -1 -41 -5z"/>
</g>
</svg>
