<?xml version="1.0" standalone="no"?>
<!DOCTYPE svg PUBLIC "-//W3C//DTD SVG 20010904//EN"
 "http://www.w3.org/TR/2001/REC-SVG-20010904/DTD/svg10.dtd">
<svg version="1.0" xmlns="http://www.w3.org/2000/svg"
 width="140.000000pt" height="89.000000pt" viewBox="0 0 140.000000 89.000000"
 preserveAspectRatio="xMidYMid meet">
<metadata>
Created by potrace 1.16, written by Peter Selinger 2001-2019
</metadata>
<g transform="translate(0.000000,89.000000) scale(0.100000,-0.100000)"
fill="#000000" stroke="none">
<path d="M950 770 c-19 -5 -74 -16 -122 -25 -320 -59 -548 -206 -648 -416 -36
-77 -39 -127 -8 -153 21 -19 22 -18 42 7 12 14 41 58 65 96 24 39 48 71 53 71
4 0 8 7 8 15 0 8 7 15 15 15 8 0 15 4 15 8 0 17 116 95 195 132 151 71 309
105 540 116 77 4 148 11 157 16 13 6 17 20 16 48 -1 39 -2 40 -62 60 -63 21
-196 26 -266 10z"/>
<path d="M842 529 c-181 -23 -381 -144 -441 -266 -24 -48 -27 -119 -7 -146 21
-28 31 -20 46 33 7 27 17 50 22 50 4 0 8 9 8 20 0 11 5 20 11 20 6 0 31 17 57
39 26 21 59 41 75 45 15 3 27 11 27 16 0 6 7 10 15 10 8 0 15 4 15 9 0 6 8 10
18 9 9 0 42 7 72 16 30 9 65 16 77 16 12 0 23 5 25 12 3 8 20 9 66 1 44 -7 62
-6 62 1 0 8 3 8 8 0 9 -15 75 -26 105 -19 19 5 24 13 26 49 2 41 0 44 -34 61
-34 15 -140 36 -175 34 -8 -1 -44 -5 -78 -10z"/>
<path d="M925 301 c-117 -30 -229 -73 -257 -99 -22 -19 -23 -45 -3 -62 17 -14
90 4 270 68 155 55 145 50 145 88 0 43 -7 43 -155 5z"/>
</g>
</svg>
