<?xml version="1.0" standalone="no"?>
<!DOCTYPE svg PUBLIC "-//W3C//DTD SVG 20010904//EN"
 "http://www.w3.org/TR/2001/REC-SVG-20010904/DTD/svg10.dtd">
<svg version="1.0" xmlns="http://www.w3.org/2000/svg"
 width="150.000000pt" height="106.000000pt" viewBox="0 0 150.000000 106.000000"
 preserveAspectRatio="xMidYMid meet">
<metadata>
Created by potrace 1.16, written by Peter Selinger 2001-2019
</metadata>
<g transform="translate(0.000000,106.000000) scale(0.100000,-0.100000)"
fill="#000000" stroke="none">
<path d="M1320 918 c-47 -17 -188 -66 -315 -110 -373 -131 -784 -306 -785
-334 0 -6 7 -17 16 -25 13 -10 24 -9 67 6 29 10 57 21 62 26 11 8 221 99 230
99 2 0 34 14 70 30 36 17 68 30 71 30 3 0 20 7 37 15 32 14 114 45 297 111
352 127 355 128 355 153 0 13 -4 25 -10 26 -5 1 -48 -11 -95 -27z"/>
<path d="M520 380 c-216 -44 -243 -53 -238 -78 4 -20 7 -20 131 12 54 13 150
35 212 47 108 21 145 33 135 42 -19 16 -79 11 -240 -23z"/>
<path d="M545 193 c-121 -3 -382 -23 -400 -30 -19 -7 -19 -37 -1 -52 8 -7 25
-9 38 -7 67 16 401 32 823 41 143 4 264 10 268 14 4 4 5 15 1 25 -6 15 -33 16
-323 14 -174 -2 -356 -4 -406 -5z"/>
</g>
</svg>
