<?xml version="1.0" standalone="no"?>
<!DOCTYPE svg PUBLIC "-//W3C//DTD SVG 20010904//EN"
 "http://www.w3.org/TR/2001/REC-SVG-20010904/DTD/svg10.dtd">
<svg version="1.0" xmlns="http://www.w3.org/2000/svg"
 width="130.000000pt" height="150.000000pt" viewBox="0 0 130.000000 150.000000"
 preserveAspectRatio="xMidYMid meet">
<metadata>
Created by potrace 1.16, written by Peter Selinger 2001-2019
</metadata>
<g transform="translate(0.000000,150.000000) scale(0.100000,-0.100000)"
fill="#000000" stroke="none">
<path d="M515 1260 c-11 -18 23 -65 97 -135 125 -118 194 -168 236 -169 26 -1
37 4 40 15 7 38 -288 299 -339 299 -15 0 -31 -4 -34 -10z"/>
<path d="M336 793 c-8 -20 -8 -48 0 -40 4 4 15 -3 25 -15 11 -11 19 -18 19
-13 0 4 6 2 14 -4 8 -6 18 -11 22 -10 5 1 16 -1 24 -4 8 -4 86 -18 174 -31 87
-14 169 -32 182 -41 31 -20 83 -20 91 1 15 39 -47 80 -159 107 -40 10 -89 22
-108 27 -19 5 -60 12 -90 15 -30 3 -66 7 -80 10 -68 14 -108 13 -114 -2z"/>
<path d="M950 418 c-122 -36 -336 -80 -474 -98 -43 -5 -85 -15 -92 -21 -22
-18 -16 -51 13 -76 22 -19 38 -23 97 -23 109 0 439 81 574 142 47 21 55 45 20
67 -43 26 -72 28 -138 9z"/>
</g>
</svg>
