<?xml version="1.0" standalone="no"?>
<!DOCTYPE svg PUBLIC "-//W3C//DTD SVG 20010904//EN"
 "http://www.w3.org/TR/2001/REC-SVG-20010904/DTD/svg10.dtd">
<svg version="1.0" xmlns="http://www.w3.org/2000/svg"
 width="153.000000pt" height="147.000000pt" viewBox="0 0 153.000000 147.000000"
 preserveAspectRatio="xMidYMid meet">
<metadata>
Created by potrace 1.16, written by Peter Selinger 2001-2019
</metadata>
<g transform="translate(0.000000,147.000000) scale(0.100000,-0.100000)"
fill="#000000" stroke="none">
<path d="M750 1399 c-14 -5 -64 -20 -111 -34 -300 -87 -486 -410 -466 -810 3
-60 12 -133 21 -162 39 -124 132 -206 302 -262 84 -29 118 -34 219 -39 117 -4
122 -4 205 28 143 56 340 186 340 225 0 7 7 15 15 19 8 3 15 12 15 20 0 8 11
31 24 51 43 62 61 140 61 255 0 97 -3 110 -31 170 -49 103 -166 212 -274 254
-69 28 -185 32 -251 11 -108 -36 -235 -200 -275 -356 -21 -82 -22 -215 0 -256
50 -99 136 -146 287 -160 73 -6 131 18 197 84 38 38 52 63 70 118 33 107 35
152 8 211 -42 90 -131 145 -211 130 -23 -5 -54 -23 -80 -47 -111 -102 -114
-244 -6 -299 63 -31 96 -27 126 17 31 47 32 87 3 107 -33 23 -45 20 -70 -19
-29 -44 -39 -44 -31 -2 14 77 81 157 131 157 32 0 62 -46 62 -95 0 -105 -68
-218 -157 -260 -41 -20 -128 -16 -187 9 -55 23 -68 92 -41 221 30 142 119 281
209 327 98 50 231 30 316 -49 73 -68 102 -132 108 -247 7 -147 -36 -256 -139
-351 -51 -47 -180 -116 -282 -151 -172 -60 -434 -6 -494 100 -29 53 -43 142
-44 273 -1 236 72 436 205 561 103 96 241 152 399 160 83 4 97 7 97 22 0 22
-26 45 -73 65 -39 16 -155 19 -197 4z"/>
</g>
</svg>
