<?xml version="1.0" standalone="no"?>
<!DOCTYPE svg PUBLIC "-//W3C//DTD SVG 20010904//EN"
 "http://www.w3.org/TR/2001/REC-SVG-20010904/DTD/svg10.dtd">
<svg version="1.0" xmlns="http://www.w3.org/2000/svg"
 width="360.000000pt" height="200.000000pt" viewBox="0 0 360.000000 200.000000"
 preserveAspectRatio="xMidYMid meet">
<metadata>
Created by potrace 1.16, written by Peter Selinger 2001-2019
</metadata>
<g transform="translate(0.000000,200.000000) scale(0.100000,-0.100000)"
fill="#000000" stroke="none">
<path d="M2010 1824 c-409 -49 -757 -153 -1113 -333 -264 -134 -529 -316 -578
-399 -12 -20 -44 -67 -70 -103 -66 -90 -89 -143 -89 -209 0 -74 26 -125 91
-184 64 -59 149 -100 250 -124 109 -25 594 -24 804 1 362 45 877 142 965 183
46 22 172 65 177 60 5 -4 -140 -70 -261 -118 -430 -171 -1215 -380 -1609 -428
-53 -7 -99 -16 -102 -20 -10 -16 9 -48 40 -64 28 -15 48 -18 107 -13 338 26
1071 199 1478 348 63 23 124 48 135 55 11 7 49 24 85 37 98 36 303 146 400
212 47 32 112 88 145 124 33 36 80 83 104 105 165 154 203 187 256 223 166
112 233 263 174 393 -52 116 -180 186 -424 231 -97 18 -158 21 -520 24 -225 2
-426 1 -445 -1z m610 -124 c86 -11 256 -57 320 -88 57 -28 128 -85 162 -131
52 -71 50 -178 -4 -246 -11 -14 -50 -41 -87 -60 l-67 -33 -35 46 c-106 142
-482 222 -903 193 -328 -23 -595 -72 -874 -163 -415 -134 -721 -312 -787 -458
-15 -34 -16 -46 -7 -77 6 -20 10 -38 8 -40 -1 -2 -18 7 -37 20 -135 91 102
391 449 570 198 101 251 126 289 136 22 6 93 31 159 56 156 60 563 184 639
196 33 5 69 14 80 19 11 5 52 11 90 13 39 3 129 13 200 22 72 10 173 21 225
25 52 4 95 8 95 8 0 1 39 -3 85 -8z m530 -47 c189 -61 240 -134 169 -245 -17
-27 -48 -62 -68 -79 l-36 -29 -7 64 c-12 120 -71 214 -181 286 l-62 41 55 -7
c30 -4 89 -18 130 -31z m-953 -378 c267 -6 291 -8 410 -34 125 -28 193 -55
239 -95 l39 -34 -40 -17 c-89 -38 -460 -155 -610 -193 -625 -158 -1459 -276
-1705 -242 -47 6 -87 13 -89 16 -10 10 61 93 124 146 154 129 577 297 925 368
107 22 209 45 225 50 17 5 53 11 80 14 117 10 164 19 158 29 -3 6 -1 7 5 3 6
-4 114 -9 239 -11z"/>
</g>
</svg>
