<?xml version="1.0" standalone="no"?>
<!DOCTYPE svg PUBLIC "-//W3C//DTD SVG 20010904//EN"
 "http://www.w3.org/TR/2001/REC-SVG-20010904/DTD/svg10.dtd">
<svg version="1.0" xmlns="http://www.w3.org/2000/svg"
 width="120.000000pt" height="141.000000pt" viewBox="0 0 120.000000 141.000000"
 preserveAspectRatio="xMidYMid meet">
<metadata>
Created by potrace 1.16, written by Peter Selinger 2001-2019
</metadata>
<g transform="translate(0.000000,141.000000) scale(0.100000,-0.100000)"
fill="#000000" stroke="none">
<path d="M575 1275 c-121 -60 -248 -183 -329 -318 -40 -67 -43 -102 -11 -102
19 -1 65 52 65 74 0 17 180 221 223 252 96 70 129 84 196 84 69 1 88 14 46 33
-48 22 -115 14 -190 -23z"/>
<path d="M802 1010 c-114 -23 -225 -126 -298 -274 -34 -69 -44 -101 -44 -138
0 -101 72 -177 174 -186 99 -8 167 32 238 142 21 33 47 65 58 73 21 15 27 49
10 55 -6 2 -12 37 -13 79 -3 89 -27 131 -89 159 l-39 17 55 6 c94 9 149 -18
175 -86 6 -16 11 -64 11 -107 0 -135 -50 -260 -157 -392 -121 -149 -277 -226
-404 -199 -105 23 -173 79 -230 191 l-34 65 1 160 c0 128 3 168 17 199 19 44
11 64 -27 64 -21 0 -25 -9 -46 -100 -66 -290 44 -544 267 -617 85 -28 202 -28
275 -1 82 31 201 130 274 229 89 120 125 215 132 346 5 125 -7 173 -59 230
-67 72 -156 103 -247 85z m-112 -182 c-11 -24 -20 -62 -20 -86 0 -65 23 -100
86 -129 l54 -25 -26 -31 c-37 -46 -112 -87 -157 -87 -108 0 -117 140 -17 284
32 47 89 116 96 116 1 0 -6 -19 -16 -42z m165 -15 c11 -36 10 -53 -2 -103 -15
-58 -16 -60 -49 -60 -25 0 -38 7 -50 25 -15 23 -15 30 2 94 12 49 24 72 38 80
34 16 48 8 61 -36z"/>
</g>
</svg>
