<?xml version="1.0" standalone="no"?>
<!DOCTYPE svg PUBLIC "-//W3C//DTD SVG 20010904//EN"
 "http://www.w3.org/TR/2001/REC-SVG-20010904/DTD/svg10.dtd">
<svg version="1.0" xmlns="http://www.w3.org/2000/svg"
 width="304.000000pt" height="304.000000pt" viewBox="0 0 304.000000 304.000000"
 preserveAspectRatio="xMidYMid meet">
<metadata>
Created by potrace 1.16, written by Peter Selinger 2001-2019
</metadata>
<g transform="translate(0.000000,304.000000) scale(0.100000,-0.100000)"
fill="#000000" stroke="none">
<path d="M1187 2990 c-319 -57 -596 -277 -755 -602 -66 -134 -93 -216 -153
-472 -27 -116 -67 -267 -89 -336 -186 -582 17 -1116 520 -1370 172 -87 361
-125 578 -117 309 11 550 93 886 302 96 60 158 107 243 189 136 130 195 207
266 346 74 143 103 224 136 382 16 73 40 180 54 238 57 234 60 386 13 565 -32
119 -106 275 -175 365 -71 94 -208 222 -303 284 -224 145 -412 205 -603 193
-74 -5 -104 -2 -165 14 -58 16 -112 22 -240 24 -91 2 -187 0 -213 -5z m107
-129 c-29 -15 -78 -49 -110 -75 -33 -25 -106 -78 -164 -118 -142 -96 -236
-176 -357 -302 -97 -100 -101 -103 -87 -63 73 208 319 446 549 532 64 24 169
52 205 54 8 0 -8 -12 -36 -28z m792 -32 c81 -24 190 -81 271 -140 85 -62 233
-214 281 -289 70 -108 116 -251 136 -420 l5 -45 -18 50 c-80 216 -210 413
-382 581 -107 103 -175 155 -303 231 -98 58 -95 64 10 32z m-281 -90 c82 -30
162 -89 252 -182 155 -162 248 -337 303 -571 44 -188 50 -429 15 -616 -37
-194 -142 -441 -200 -469 -91 -44 -246 -81 -340 -81 -110 0 -269 46 -375 109
-299 178 -482 572 -456 981 15 229 51 391 120 536 79 166 140 238 236 277 84
35 83 36 37 -55 -122 -240 -121 -575 3 -768 60 -93 190 -187 227 -164 29 18
25 32 -14 57 -22 14 -60 48 -86 77 -54 60 -80 131 -99 270 -27 205 45 450 174
591 38 42 38 42 93 35 30 -3 79 -15 110 -27z m360 -118 c90 -68 204 -186 274
-280 71 -96 157 -266 196 -386 35 -110 65 -290 65 -393 -1 -105 -18 -160 -86
-273 -44 -73 -175 -229 -193 -229 -4 0 8 44 25 98 51 152 64 233 71 417 9 274
-28 465 -132 683 -70 146 -140 246 -248 356 -88 89 -82 91 28 7z m-1235 -239
c-51 -158 -71 -274 -77 -453 -6 -181 3 -273 42 -424 98 -378 361 -650 714
-742 113 -29 285 -35 394 -14 37 7 70 11 73 8 20 -20 -186 -205 -320 -288
-151 -93 -309 -147 -456 -156 -400 -24 -740 323 -862 880 -20 89 -23 131 -23
332 0 216 2 233 23 286 28 69 100 192 179 301 52 73 318 358 334 358 4 0 -6
-40 -21 -88z m-629 -1257 c86 -342 252 -594 499 -756 269 -177 627 -186 951
-24 178 90 392 271 518 440 41 54 72 82 142 127 49 32 112 79 139 104 28 26
50 44 50 40 0 -20 -76 -153 -128 -223 -151 -204 -354 -363 -627 -494 -246
-117 -396 -154 -630 -154 -195 0 -275 18 -440 99 -185 92 -301 206 -395 387
-80 155 -102 245 -106 429 -1 85 0 144 2 130 3 -14 14 -61 25 -105z"/>
</g>
</svg>
