<?xml version="1.0" standalone="no"?>
<!DOCTYPE svg PUBLIC "-//W3C//DTD SVG 20010904//EN"
 "http://www.w3.org/TR/2001/REC-SVG-20010904/DTD/svg10.dtd">
<svg version="1.0" xmlns="http://www.w3.org/2000/svg"
 width="318.000000pt" height="187.000000pt" viewBox="0 0 318.000000 187.000000"
 preserveAspectRatio="xMidYMid meet">
<metadata>
Created by potrace 1.16, written by Peter Selinger 2001-2019
</metadata>
<g transform="translate(0.000000,187.000000) scale(0.100000,-0.100000)"
fill="#000000" stroke="none">
<path d="M2610 1679 c-249 -21 -449 -119 -603 -297 -72 -83 -126 -172 -222
-370 -112 -231 -217 -369 -310 -408 -29 -12 -36 -13 -29 -2 6 7 43 54 82 105
74 93 141 220 163 306 18 73 7 176 -24 230 -36 60 -110 124 -161 138 -92 25
-209 -13 -286 -93 -23 -24 -59 -79 -81 -123 -53 -108 -66 -201 -45 -321 19
-110 54 -181 117 -238 l49 -44 -62 -50 c-146 -116 -350 -225 -544 -292 -130
-45 -280 -75 -332 -66 -62 10 -88 -24 -34 -45 41 -17 233 -4 322 21 238 66
532 214 693 347 48 40 50 40 113 35 96 -7 141 14 235 111 82 85 133 170 257
427 67 137 159 268 247 349 132 120 328 183 625 201 96 6 189 13 206 16 44 6
65 25 58 51 -6 21 -9 22 -172 21 -92 -1 -210 -5 -262 -9z m-1070 -387 c120
-60 92 -288 -62 -497 -53 -71 -156 -185 -169 -185 -22 0 -89 75 -109 123 -51
116 -31 327 41 438 30 48 102 109 150 128 39 16 111 12 149 -7z"/>
</g>
</svg>
